<svg version="1.1" id="Layer_1" xmlns="http://www.w3.org/2000/svg" xmlns:xlink="http://www.w3.org/1999/xlink" x="0px" y="0px"
	 width="100%" viewBox="0 0 1024 1024" enable-background="new 0 0 1024 1024" xml:space="preserve">
<path fill="#000000" opacity="1.000000" stroke="none" 
	d="
M575.000000,1025.000000 
	C383.333344,1025.000000 192.166672,1025.000000 1.000000,1025.000000 
	C1.000000,683.666687 1.000000,342.333344 1.000000,1.000000 
	C342.333344,1.000000 683.666687,1.000000 1025.000000,1.000000 
	C1025.000000,342.333344 1025.000000,683.666687 1025.000000,1025.000000 
	C875.166687,1025.000000 725.333313,1025.000000 575.000000,1025.000000 
M459.999603,683.006470 
	C459.999603,683.006470 459.918457,682.962952 460.005127,683.564880 
	C460.349060,683.737244 460.692993,683.909607 460.993958,684.005920 
	C460.993958,684.005920 460.917999,683.962646 461.005005,684.564697 
	C461.348969,684.737122 461.692932,684.909546 462.004425,685.021729 
	C462.004425,685.021729 461.940430,684.997498 462.002075,685.564331 
	C462.311066,685.767944 462.620056,685.971497 462.945984,686.801208 
	C463.267242,687.267517 463.588501,687.733765 464.030670,688.637756 
	C464.203735,688.920959 464.456116,689.068420 465.134827,689.729980 
	C466.082001,690.678101 467.029205,691.626221 468.122467,692.726135 
	C468.122467,692.726135 468.422699,693.021667 468.950775,693.518982 
	C470.626160,695.537659 472.301544,697.556396 474.122742,699.726868 
	C474.122742,699.726868 474.421875,700.022949 474.908295,700.449097 
	C475.248474,700.698853 475.588623,700.948608 476.028900,701.650391 
	C476.206818,701.946533 476.468201,702.084167 476.939911,702.801819 
	C478.290070,704.395264 479.640228,705.988770 480.977875,707.509277 
	C480.977875,707.509277 480.934265,707.449524 480.968475,708.204895 
	C481.320557,708.496399 481.672668,708.787964 481.994965,709.017822 
	C481.994965,709.017822 481.931458,708.992432 482.083008,709.697388 
	C487.379852,718.825806 492.676697,727.954285 498.100800,737.841858 
	C500.253387,743.715881 500.944214,750.259155 506.087585,755.145996 
	C506.087585,755.145996 506.295441,755.430420 507.187103,755.914978 
	C505.939209,761.028748 506.856293,765.889893 508.830200,770.654663 
	C509.612213,772.542297 510.372925,774.460083 510.896942,776.429749 
	C514.584900,790.291321 518.208557,804.169861 521.947510,818.871155 
	C523.299683,822.939270 524.651855,827.007446 525.981384,831.006042 
	C525.981384,831.006042 525.921021,830.964844 525.968323,831.726807 
	C526.062439,832.472412 526.156555,833.218018 526.556091,834.673950 
	C527.201843,837.833130 527.689331,841.034546 528.519958,844.144287 
	C532.648010,859.598511 536.815674,875.042725 541.083984,890.458679 
	C542.357239,895.057312 543.562683,899.758789 545.572937,904.050781 
	C549.084534,911.548340 553.347046,913.181274 561.364502,911.364197 
	C562.675903,911.066956 564.212524,911.762939 566.448547,911.998047 
	C566.984253,911.992371 567.519897,911.986633 568.841858,912.053467 
	C575.690735,911.226990 582.196594,903.666077 581.967957,895.798157 
	C581.673584,885.671448 580.799500,875.557617 580.014954,865.450684 
	C579.512024,858.972839 578.825134,852.504211 578.015320,846.057312 
	C577.584595,842.628052 576.716675,839.253662 576.038757,834.954773 
	C575.643066,830.966431 575.247375,826.978027 575.019165,822.087952 
	C574.717957,818.355286 574.416687,814.622681 574.037842,809.998230 
	C573.730408,806.628784 573.422974,803.259399 573.027405,798.977722 
	C573.032837,795.323059 573.430176,791.618469 572.971680,788.023010 
	C571.483276,776.352478 569.681213,764.721985 567.755005,751.736450 
	C567.483643,750.870972 567.212280,750.005493 566.542175,748.615967 
	C567.020203,739.603271 567.524841,730.591797 567.958984,721.576965 
	C568.079834,719.066528 567.992065,716.545898 567.985535,713.631042 
	C567.985535,713.631042 567.952637,713.233154 568.622986,712.915283 
	C568.753967,711.958740 568.884949,711.002258 569.779297,709.790100 
	C570.762756,703.718872 571.746216,697.647705 572.871216,690.734741 
	C573.566040,687.545105 574.260803,684.355469 575.723389,680.996155 
	C578.170166,675.053833 580.617004,669.111511 583.695251,662.920105 
	C583.817627,662.274475 583.939941,661.628845 584.010620,661.009766 
	C584.010620,661.009766 583.996582,661.066162 584.706360,660.910645 
	C586.709229,656.468506 588.712158,652.026367 591.036438,646.904785 
	C592.676147,644.327393 594.315857,641.750061 596.711121,639.074158 
	C601.829834,632.735352 606.485107,625.939392 612.178955,620.167969 
	C620.179688,612.058167 628.387939,603.937866 637.546814,597.244263 
	C647.423889,590.025696 658.499390,584.446960 669.810730,578.063049 
	C672.561340,576.710693 675.311951,575.358337 677.996155,574.019531 
	C677.996155,574.019531 677.957764,574.075317 678.700928,574.056763 
	C679.489624,573.705566 680.278259,573.354370 681.036316,572.980774 
	C681.036316,572.980774 681.009460,573.007690 681.674622,573.050598 
	C682.172546,572.719238 682.670471,572.387878 683.974670,572.065186 
	C685.073181,571.853210 686.210083,571.757996 687.264526,571.411743 
	C704.343201,565.805298 721.866455,562.930115 739.838806,563.075317 
	C750.553101,563.161865 761.264893,563.566956 772.889099,563.994629 
	C788.953491,564.589783 805.017944,565.184937 821.905212,566.012756 
	C823.460938,566.360291 825.008972,566.968506 826.573608,567.014526 
	C840.307922,567.418457 854.047668,567.646545 867.780334,568.094055 
	C873.019653,568.264832 878.366821,568.310425 883.445984,569.417297 
	C890.016846,570.849304 896.019470,569.890259 901.818054,567.049377 
	C907.566467,564.233154 910.357727,559.183105 909.813232,552.701782 
	C909.757263,550.559875 909.701294,548.418030 909.935669,545.582520 
	C910.508362,539.387512 906.597290,535.224915 901.967407,533.212830 
	C895.151550,530.250854 887.629517,528.885437 880.359802,527.029846 
	C879.391235,526.782593 878.139160,527.645935 876.548096,527.997314 
	C876.548096,527.997314 876.077759,528.000549 876.052063,527.164551 
	C875.478882,526.756042 874.959045,526.125977 874.324341,525.973206 
	C867.945740,524.438416 861.577454,522.837952 855.150085,521.532837 
	C840.865662,518.632446 826.551880,515.875732 812.243286,513.095215 
	C808.661438,512.399170 805.054016,511.834564 800.891907,511.116760 
	C800.701660,511.096313 800.511475,511.075867 800.016663,510.578491 
	C799.725098,510.369720 799.433533,510.160950 798.820984,509.236847 
	C793.553284,508.203735 788.285645,507.170624 782.199402,506.006042 
	C781.370850,506.007599 780.504272,506.170135 779.719849,505.984924 
	C774.187683,504.678833 768.672363,503.301208 762.832764,501.230652 
	C754.600647,499.136047 746.368591,497.041412 737.864075,494.241882 
	C737.190857,493.810638 736.572571,493.191498 735.836243,492.975952 
	C722.290039,489.009888 709.882141,482.335449 698.489441,474.448395 
	C688.239990,467.352722 679.192078,458.358917 670.284363,449.526428 
	C657.413147,436.763855 647.452515,421.816711 639.817139,405.341919 
	C638.768738,403.079712 637.324280,401.001038 636.062988,398.048126 
	C635.954224,397.422668 635.915283,396.775238 635.726440,396.174957 
	C631.848877,383.848175 626.919189,371.815918 625.995300,358.691528 
	C625.741638,355.087860 624.541626,351.550812 623.979309,347.067505 
	C624.004700,345.407990 624.080139,343.747498 624.047607,342.089111 
	C623.726013,325.695923 623.915405,309.343445 628.062012,293.322479 
	C629.381775,288.223419 630.817871,283.154480 632.876160,277.712952 
	C635.886353,269.320679 638.823608,260.901337 641.924744,252.542831 
	C646.078674,241.346466 650.480530,230.240921 654.539246,219.010849 
	C656.855164,212.602859 658.700439,206.024780 660.889587,198.793655 
	C660.926331,198.549225 660.963074,198.304810 661.691101,197.793228 
	C663.759460,193.373367 666.230957,189.090652 667.793152,184.498596 
	C669.699951,178.893372 670.843140,173.028381 672.690735,166.473160 
	C673.793701,163.667801 674.896667,160.862442 676.701782,157.792038 
	C679.500793,150.936890 682.609741,144.184998 684.944885,137.175293 
	C685.866882,134.407761 685.065125,131.065979 685.013977,127.176208 
	C684.060425,117.698151 676.023254,111.379204 667.289185,113.968513 
	C665.238892,113.979385 663.188538,113.990250 660.792603,113.307167 
	C655.021301,112.084137 652.338928,116.402664 650.036743,120.107826 
	C642.423218,132.361221 635.210876,144.865646 627.936768,157.327576 
	C624.150391,163.814545 620.557495,170.414474 616.230164,177.226761 
	C612.940979,182.495499 609.205078,187.543854 606.470825,193.086349 
	C602.679138,200.772232 595.960815,207.009186 595.017029,216.015701 
	C595.017029,216.015701 595.059387,215.946045 594.330872,216.091721 
	C587.662781,221.756454 584.340637,229.513565 580.522644,237.009766 
	C580.326172,237.341187 580.129700,237.672623 579.997986,237.976837 
	C579.997986,237.976837 580.027100,237.912888 579.303406,238.124588 
	C579.177490,238.601181 579.051575,239.077789 578.968384,239.493546 
	C578.968384,239.493546 578.974915,239.419495 578.465454,239.965332 
	C568.120667,257.120819 555.894653,272.837128 540.495361,285.659882 
	C531.867981,292.843781 522.268799,298.961548 512.669495,304.844971 
	C505.126740,309.467926 496.912537,312.995331 488.867218,317.727905 
	C488.819611,317.966553 488.772003,318.205200 488.514374,318.908600 
	C487.805786,319.017975 487.097229,319.127350 484.667572,319.467163 
	C484.101349,319.587219 483.535095,319.707306 482.648895,320.309601 
	C476.648163,319.455444 471.092133,320.722565 465.244293,323.954071 
	C464.721008,324.320648 464.197723,324.687225 463.137421,325.109955 
	C462.959717,325.138336 462.781982,325.166718 462.565918,325.429443 
	C462.565918,325.429443 462.254608,325.563354 462.254608,325.563354 
	C462.254608,325.563354 462.008087,325.368073 461.212219,325.882751 
	C460.949768,326.058655 460.687347,326.234558 459.611328,326.780853 
	C454.147217,326.486084 448.187927,324.663574 443.329712,326.238190 
	C435.095978,328.906891 427.027191,327.503937 418.688416,327.995209 
	C418.688416,327.995209 418.478180,328.042999 417.891418,327.419983 
	C411.282593,326.589020 404.673798,325.758057 397.765564,324.178894 
	C396.163574,324.093475 394.561615,324.008057 393.006317,323.984314 
	C393.006317,323.984314 393.079895,324.008087 392.849701,323.258789 
	C391.505951,322.815338 390.187103,322.263000 388.813843,321.948364 
	C384.260468,320.904999 379.687408,319.947235 374.854126,318.269867 
	C373.894897,318.154785 372.935669,318.039703 372.007294,317.981476 
	C372.007294,317.981476 372.068726,318.001709 371.901337,317.313721 
	C370.980927,317.191742 370.060547,317.069794 368.867950,316.257782 
	C362.365784,313.177948 355.895782,310.025665 349.320221,307.111420 
	C348.511688,306.753052 347.139404,307.666748 345.478668,307.931763 
	C345.008545,307.447174 344.538422,306.962585 343.965240,305.666626 
	C342.966125,304.578186 342.111603,303.293884 340.944794,302.432617 
	C332.435608,296.151367 323.912689,289.885681 315.272827,283.786926 
	C313.404633,282.468201 311.044403,281.846619 308.982269,280.993561 
	C308.982269,280.993561 309.074921,281.061096 309.054718,280.212708 
	C308.360962,279.798065 307.667206,279.383423 306.983154,279.020172 
	C306.983154,279.020172 307.028748,279.045807 307.660278,278.521210 
	C307.106476,277.990906 306.552704,277.460602 306.001953,276.982758 
	C306.001953,276.982758 306.053009,276.995239 305.927521,276.332123 
	C304.977722,275.821960 304.027893,275.311829 302.813995,274.174347 
	C293.750824,266.828918 284.750854,259.403229 275.584381,252.189026 
	C272.977692,250.137482 269.886597,248.701401 267.000000,247.000000 
	C267.000000,247.000000 267.018280,246.983521 267.651123,246.430817 
	C266.790802,245.891556 265.930450,245.352295 264.831207,244.185516 
	C256.445190,237.178421 248.119644,230.096405 239.616913,223.233932 
	C238.103470,222.012451 235.854507,221.702271 233.976440,221.024765 
	C233.976440,221.024765 234.031891,221.052368 234.668488,220.527863 
	C225.443680,213.146317 216.332397,205.616440 206.953064,198.436752 
	C200.965500,193.853424 194.788574,194.305283 188.211960,198.130081 
	C177.460236,204.382965 174.044479,216.823227 181.544373,226.979935 
	C186.996140,234.362961 193.426376,241.023315 199.417862,248.008011 
	C205.372986,254.950317 211.218414,261.990417 217.307541,268.813049 
	C223.739304,276.019531 230.402054,283.019897 237.264435,290.721619 
	C242.204346,296.382080 247.214890,301.982697 252.069901,307.715057 
	C263.132843,320.777191 274.119507,333.903900 285.110413,347.694763 
	C289.053528,353.489197 292.959198,359.309814 296.971466,365.055939 
	C297.772461,366.203064 298.980682,367.065826 300.102356,368.781860 
	C300.820221,370.334808 301.538086,371.887756 302.704865,373.433746 
	C303.057129,373.865509 303.409393,374.297272 304.016907,375.040680 
	C304.016907,375.040680 304.281067,375.344818 304.659454,375.511902 
	C304.724213,375.897369 304.788940,376.282867 304.922089,377.204834 
	C304.945801,377.383575 304.969482,377.562286 304.593414,378.281677 
	C306.583313,384.426056 307.505157,391.025513 312.815247,396.820953 
	C313.035187,397.082184 313.255096,397.343384 313.546356,397.725525 
	C313.546356,397.725525 313.437500,397.957245 313.289642,398.914978 
	C313.635803,400.820709 313.981964,402.726471 314.083557,405.391632 
	C315.719421,413.604004 317.355255,421.816376 319.038544,430.961639 
	C318.424988,449.737396 320.489288,468.677216 315.007538,487.148346 
	C313.408905,492.535034 313.464691,498.428253 311.737854,503.757355 
	C309.723755,509.972961 306.586945,515.824829 303.271973,522.126831 
	C301.655670,525.078186 300.032501,528.025757 298.424347,530.981567 
	C291.356323,543.972778 282.982605,556.020264 272.710022,566.708008 
	C262.484650,577.346741 251.479950,586.930420 238.834763,594.753540 
	C224.349625,603.714966 210.341370,613.450684 196.184052,622.936829 
	C190.359680,626.839478 184.687073,630.968689 179.005203,634.980164 
	C179.005203,634.980164 179.033157,634.925293 178.432755,635.006836 
	C178.261993,635.349731 178.091232,635.692627 177.994995,635.994873 
	C177.994995,635.994873 178.035782,635.920410 177.432983,636.006531 
	C177.259949,636.351318 177.086914,636.696045 176.991165,636.994751 
	C176.991165,636.994751 177.037292,636.917542 176.309357,637.009033 
	C176.189697,637.354492 176.070023,637.700012 176.005035,638.022827 
	C176.005035,638.022827 176.030090,637.969238 175.469391,637.317444 
	C173.772583,638.225769 172.001633,639.019714 170.391861,640.062439 
	C163.526199,644.509705 156.632950,648.921204 149.895645,653.557739 
	C144.112747,657.537415 138.527847,661.804810 132.107529,665.936951 
	C125.250504,668.375000 120.369308,673.262878 116.464127,679.116943 
	C115.784996,680.135010 116.748604,682.248901 116.979004,684.819702 
	C117.082161,687.745178 117.185310,690.670654 117.627983,693.744873 
	C117.684944,693.894897 117.825562,694.078369 117.781708,694.188110 
	C117.686218,694.427063 117.496750,694.628479 118.067719,695.859192 
	C118.320580,696.188232 118.573441,696.517212 118.554962,697.434998 
	C119.266747,699.080627 119.547943,701.214783 120.764809,702.287354 
	C126.047707,706.944031 132.299850,707.894043 139.831238,706.046692 
	C147.911728,702.759766 155.992218,699.472839 164.781296,696.031982 
	C173.911469,692.049805 183.067368,688.125061 192.158508,684.055725 
	C195.541306,682.541504 198.772629,680.689026 202.006393,679.014832 
	C202.006393,679.014832 201.967667,679.074097 202.557297,678.980713 
	C202.721100,678.641846 202.884918,678.302917 202.981262,677.997925 
	C202.981262,677.997925 202.924805,678.048035 203.241913,677.105469 
	C205.122726,677.086426 207.223770,677.609375 208.844742,676.950806 
	C214.671326,674.583557 220.335754,671.817200 226.839783,669.049072 
	C229.419342,668.041260 231.998917,667.033447 234.502396,666.031738 
	C234.502396,666.031738 234.438873,666.073975 235.278732,666.017700 
	C235.722061,665.679138 236.165375,665.340637 236.519165,665.020935 
	C236.519165,665.020935 236.445007,665.074524 237.197647,665.027588 
	C237.494324,664.676147 237.790985,664.324707 238.022812,663.998047 
	C238.022812,663.998047 237.991302,664.059875 238.662476,664.053406 
	C239.163666,663.720703 239.664871,663.388062 240.937943,662.995178 
	C251.557022,658.586548 262.121429,654.039368 272.814392,649.817932 
	C279.955444,646.998657 287.184540,644.317444 294.548096,642.170837 
	C301.922821,640.020935 309.513611,638.612244 317.891968,637.041443 
	C324.065216,636.710632 330.241272,636.420593 336.408630,636.002930 
	C337.290558,635.943176 338.130615,635.265686 339.499817,634.976196 
	C339.669739,634.942139 339.839661,634.908081 340.794952,635.040955 
	C341.860168,634.985474 342.925415,634.929993 344.835327,635.011902 
	C349.934265,635.702271 355.018005,636.556091 360.136871,637.032715 
	C364.449951,637.434204 368.803894,637.397339 374.121582,637.809204 
	C374.451233,637.884277 374.780914,637.959412 375.344238,638.768005 
	C380.164673,639.870972 384.985077,640.973938 390.132751,642.758606 
	C394.352448,644.197327 398.572144,645.635986 403.118164,647.722778 
	C404.059509,647.885986 405.000854,648.049255 405.951385,648.101685 
	C405.951385,648.101685 405.840637,648.111389 406.106384,648.715149 
	C406.737122,648.824219 407.367828,648.933228 407.973694,648.989380 
	C407.973694,648.989380 407.917267,648.974060 408.120544,649.702393 
	C408.598572,649.826233 409.076569,649.950073 409.494385,650.031067 
	C409.494385,650.031067 409.420807,650.024353 409.981415,650.569824 
	C412.332428,651.581726 414.826813,652.351990 417.009674,653.647278 
	C426.658661,659.373230 436.218048,665.250122 446.061920,671.661743 
	C446.364716,671.959961 446.667480,672.258118 447.117889,672.714539 
	C447.117889,672.714539 447.422668,673.021545 447.956268,673.526733 
	C449.630676,674.877441 451.305054,676.228210 453.123413,677.728577 
	C453.123413,677.728577 453.419678,678.019714 453.958649,678.524597 
	C454.972900,679.373352 455.987152,680.222107 456.978027,681.004822 
	C456.978027,681.004822 456.915161,680.973816 457.125336,681.697327 
	C457.601624,681.822876 458.077911,681.948425 458.479126,682.020325 
	C458.479126,682.020325 458.388794,682.001526 458.905060,682.453857 
	C459.286469,682.663879 459.667877,682.873901 459.999603,683.006470 
z"/>
<path fill="#010101" opacity="1.000000" stroke="none" 
	d="
M418.478180,328.042999 
	C418.478180,328.042999 418.688416,327.995209 419.036072,328.344727 
	C433.064148,327.933014 446.744568,327.171722 460.424957,326.410431 
	C460.687347,326.234558 460.949768,326.058655 461.676086,325.592041 
	C462.139954,325.301331 462.604248,325.195129 462.604248,325.195129 
	C462.781982,325.166718 462.959717,325.138336 463.801575,325.160095 
	C464.980438,325.090698 465.495209,324.971161 466.399353,324.828918 
	C472.182159,323.146606 477.575500,321.487000 482.968872,319.827362 
	C483.535095,319.707306 484.101349,319.587219 485.398438,319.236755 
	C486.994324,318.818817 487.859344,318.631348 488.724396,318.443848 
	C488.772003,318.205200 488.819611,317.966553 489.339508,317.444153 
	C491.396759,316.798187 493.140015,316.744141 494.541351,316.024384 
	C504.555359,310.881195 514.876770,306.204468 524.390991,300.246521 
	C547.168640,285.982758 564.797424,266.544525 578.580627,243.575836 
	C579.226685,242.499222 578.866455,240.818741 578.974854,239.419495 
	C578.974915,239.419495 578.968384,239.493546 579.510864,239.655609 
	C580.044678,239.182739 580.035889,238.547821 580.027100,237.912888 
	C580.027100,237.912888 579.997986,237.976837 580.126038,238.328537 
	C580.501404,238.648270 580.748718,238.616318 581.195923,238.281311 
	C585.950378,230.634186 590.504883,223.290115 595.059387,215.946045 
	C595.059387,215.946045 595.017029,216.015701 595.110535,215.723633 
	C602.858032,202.628021 610.511963,189.824478 618.430420,176.824234 
	C628.902710,159.574295 639.211426,142.580261 649.255310,125.431122 
	C652.200623,120.402153 655.668030,116.246078 661.138245,114.001114 
	C663.188538,113.990250 665.238892,113.979385 668.103149,113.959625 
	C677.490479,114.801559 681.502258,120.535431 683.863647,128.420410 
	C683.067139,132.878510 682.615234,136.965210 681.529846,140.876099 
	C679.922302,146.668564 677.865295,152.336288 675.999634,158.057098 
	C674.896667,160.862442 673.793701,163.667801 672.344604,166.967224 
	C669.157593,174.695999 666.235229,181.900253 663.516479,189.180573 
	C662.443787,192.053207 661.825195,195.095398 660.999817,198.060394 
	C660.963074,198.304810 660.926331,198.549225 660.513550,199.215088 
	C656.434021,208.925919 652.583069,218.159790 649.059204,227.516830 
	C642.710754,244.374039 636.558228,261.305054 630.177734,278.478271 
	C622.432312,301.233368 619.984863,324.294159 622.191956,348.267792 
	C624.024597,366.676788 627.857239,384.198944 635.760498,401.011993 
	C648.231384,429.895844 666.956970,453.456543 691.989380,471.951172 
	C705.556274,481.974762 720.059692,490.291412 736.566101,495.515808 
	C744.985962,497.970123 753.146606,500.162415 761.591675,502.598755 
	C768.931091,504.376801 775.986023,505.910797 783.424988,507.617188 
	C787.989502,508.591156 792.169983,509.392761 796.574707,510.398560 
	C797.973022,510.753662 799.147156,510.904541 800.321228,511.055420 
	C800.511475,511.075867 800.701660,511.096313 801.498413,511.106812 
	C804.118774,511.838715 806.080322,512.808228 808.155029,513.286194 
	C823.869812,516.906494 839.593140,520.493225 855.343384,523.955566 
	C862.218994,525.466980 869.164185,526.661865 876.077759,528.000549 
	C876.077759,528.000549 876.548096,527.997314 877.142212,528.077881 
	C880.964233,529.144104 884.130371,530.519714 887.431580,531.042297 
	C897.325500,532.608215 905.873291,535.891602 909.645325,546.276123 
	C909.701294,548.418030 909.757263,550.559875 909.422241,553.311768 
	C907.031311,557.132263 905.537415,560.856934 902.916504,563.436768 
	C898.625122,567.660950 892.864502,567.791260 887.057434,567.498474 
	C865.699768,566.421814 844.332092,565.543091 822.552185,564.432373 
	C805.416992,563.570312 788.697754,562.865845 771.561646,562.079956 
	C767.659729,561.804199 764.173157,561.635254 760.690125,561.411499 
	C734.599792,559.735291 708.900940,561.540039 683.993286,570.151855 
	C682.646301,570.617554 681.566467,571.855652 680.474976,572.918823 
	C680.587708,573.103455 681.009460,573.007690 681.009460,573.007690 
	C681.009460,573.007690 681.036316,572.980774 680.858154,572.421997 
	C679.772644,572.600586 678.865173,573.337952 677.957764,574.075317 
	C677.957764,574.075317 677.996155,574.019531 677.907349,573.530762 
	C675.213379,574.032104 672.608093,575.022095 669.631165,576.026489 
	C640.284668,589.103394 616.433960,608.417236 598.128174,634.458252 
	C597.149292,635.850708 596.668335,637.593140 595.955566,639.172668 
	C594.315857,641.750061 592.676147,644.327393 590.601685,647.345215 
	C588.110107,652.212463 586.053345,656.639343 583.996582,661.066162 
	C583.996582,661.066162 584.010620,661.009766 583.816956,660.715393 
	C583.345764,660.725281 583.068237,661.029541 582.537109,661.587769 
	C579.840820,668.283081 577.398254,674.724487 574.955627,681.165833 
	C574.260803,684.355469 573.566040,687.545105 572.493713,691.249512 
	C570.963562,697.251343 569.810974,702.738464 568.442444,708.471313 
	C568.135254,710.222473 568.043945,711.727844 567.952637,713.233154 
	C567.952637,713.233154 567.985535,713.631042 567.860352,714.175537 
	C567.542114,724.743530 567.354431,734.767151 567.150330,744.790405 
	C567.120789,746.241089 567.012695,747.690186 566.940918,749.140015 
	C567.212280,750.005493 567.483643,750.870972 567.711548,752.750244 
	C568.997864,768.874512 570.327576,783.985107 571.563477,799.461670 
	C571.730164,801.524414 571.990540,803.221069 572.184082,805.350464 
	C572.295471,807.220032 572.473694,808.656921 572.552673,810.478638 
	C572.759155,812.867615 573.064941,814.871765 573.291870,817.255981 
	C573.432617,819.410400 573.652161,821.184692 573.767700,823.320557 
	C574.351318,829.668457 575.038879,835.654846 575.660522,842.033752 
	C575.761719,844.292664 575.928711,846.159058 575.994568,848.282104 
	C576.128723,849.603821 576.364136,850.668884 576.528809,852.150146 
	C577.621582,865.796875 578.814941,879.024963 579.935242,892.259155 
	C580.458069,898.435608 578.547791,903.732483 573.727417,907.775940 
	C571.927490,909.285828 569.951355,910.585388 568.055603,911.980835 
	C567.519897,911.986633 566.984253,911.992371 565.729126,912.229492 
	C556.210754,913.285217 547.551819,906.111267 545.927368,899.613647 
	C544.478760,893.819214 542.770569,888.089478 541.159973,882.335815 
	C536.515747,865.744507 531.863037,849.155457 527.240967,832.188660 
	C526.819214,831.529480 526.370117,831.247192 525.921021,830.964844 
	C525.921021,830.964844 525.981384,831.006042 526.422913,830.822144 
	C525.930786,827.377319 524.997131,824.116333 524.071533,820.394165 
	C520.726196,807.490295 517.419373,795.034790 514.004150,782.609131 
	C511.508514,773.529236 508.870209,764.488586 506.295471,755.430420 
	C506.295441,755.430420 506.087585,755.145996 505.873718,754.644897 
	C503.207611,747.873962 500.755341,741.604187 498.290527,734.985535 
	C493.914093,726.800964 489.606506,718.932617 485.117188,711.169373 
	C484.536621,710.165344 483.016418,709.704773 481.931458,708.992432 
	C481.931458,708.992432 481.994965,709.017822 482.343750,708.587891 
	C482.106415,707.921875 481.520325,707.685730 480.934265,707.449524 
	C480.934265,707.449524 480.977875,707.509277 481.382874,707.340210 
	C480.603333,705.437256 479.418793,703.703308 478.101807,701.585266 
	C477.214081,700.445374 476.458771,699.689636 475.199524,698.990173 
	C474.604370,699.371948 474.513123,699.697449 474.421875,700.022949 
	C474.421875,700.022949 474.122742,699.726868 474.609192,699.520508 
	C473.397980,696.834229 471.700348,694.354370 470.002747,691.874512 
	C469.476074,692.256897 468.949402,692.639282 468.422729,693.021667 
	C468.422699,693.021667 468.122467,692.726135 468.609650,692.530396 
	C468.475525,691.191956 467.854187,690.049194 467.143524,688.626831 
	C466.464050,687.861023 465.873871,687.374756 465.133881,686.569580 
	C464.288300,685.638245 463.592529,685.025940 462.544861,684.374756 
	C462.108765,684.556396 462.024597,684.776917 461.940430,684.997498 
	C461.940430,684.997498 462.004425,685.021729 462.269836,684.605835 
	C461.996155,684.114258 461.457062,684.038452 460.917999,683.962646 
	C460.917999,683.962646 460.993958,684.005920 461.264496,683.598145 
	C460.996185,683.114624 460.457306,683.038757 459.918457,682.962952 
	C459.918457,682.962952 459.999603,683.006470 460.182678,682.437256 
	C459.706757,681.912476 459.047760,681.956970 458.388794,682.001526 
	C458.388794,682.001526 458.479126,682.020325 458.647888,681.484375 
	C458.182831,680.956848 457.548981,680.965332 456.915161,680.973877 
	C456.915161,680.973816 456.978027,681.004822 457.554932,680.762573 
	C456.225708,676.845886 455.564453,676.494995 453.419678,678.019714 
	C453.419678,678.019714 453.123413,677.728577 453.616791,677.466675 
	C452.087036,672.960388 449.974487,671.638916 447.422668,673.021545 
	C447.422668,673.021545 447.117889,672.714539 447.281586,672.686890 
	C447.445282,672.659302 447.736725,672.271851 448.081818,671.899414 
	C437.695892,662.020935 425.429016,654.988342 412.354034,649.301453 
	C411.619965,648.982178 410.409515,649.758179 409.420807,650.024414 
	C409.420807,650.024353 409.494385,650.031067 409.655884,649.490112 
	C409.183990,648.957520 408.550629,648.965820 407.917267,648.974060 
	C407.917267,648.974060 407.973694,648.989380 408.347046,648.915649 
	C408.752502,648.594360 408.784607,648.346802 408.539856,647.836304 
	C402.731049,645.619568 397.199127,643.665771 391.409180,641.447693 
	C385.804291,640.133789 380.457428,639.084167 375.110565,638.034546 
	C374.780914,637.959412 374.451233,637.884277 373.421082,637.486328 
	C363.150146,636.120178 353.579681,635.076843 343.615967,633.934937 
	C342.149200,633.899109 341.075653,633.961731 339.750854,633.961731 
	C339.332245,633.941833 339.164948,633.984558 338.536621,633.945435 
	C331.058289,634.488220 324.040955,635.112854 316.625244,635.674683 
	C287.994049,638.991272 262.962372,651.586060 237.408051,663.329224 
	C237.537430,663.820862 237.764359,663.940369 237.991302,664.059875 
	C237.991302,664.059875 238.022812,663.998047 237.584869,663.645508 
	C236.912949,663.886841 236.678970,664.480652 236.445007,665.074524 
	C236.445007,665.074524 236.519165,665.020935 236.047211,664.501404 
	C235.196442,664.679199 234.817642,665.376587 234.438873,666.073975 
	C234.438873,666.073975 234.502396,666.031738 234.428741,665.467896 
	C231.583710,665.720032 228.812347,666.535950 225.727905,667.515381 
	C217.918167,671.135254 210.421494,674.591675 202.924805,678.048035 
	C202.924805,678.048035 202.981262,677.997925 202.603043,677.916138 
	C202.139099,678.247620 202.053375,678.660828 201.967651,679.074097 
	C201.967667,679.074097 202.006393,679.014832 201.790283,678.613831 
	C188.981659,683.602600 176.389175,688.992371 163.422028,694.497864 
	C155.060089,697.999512 147.072784,701.385437 138.688110,704.747986 
	C130.003387,706.543579 123.721848,703.407043 118.826317,696.846191 
	C118.573441,696.517212 118.320580,696.188232 117.627350,695.259766 
	C117.220810,694.305664 117.254639,693.950867 117.288467,693.596130 
	C117.185310,690.670654 117.082161,687.745178 117.010201,683.990967 
	C119.934296,679.458923 122.550087,675.485107 125.812408,672.142334 
	C128.194366,669.701660 131.427704,668.091858 134.615906,666.040527 
	C147.994370,657.414856 161.047150,648.873535 174.061584,640.274170 
	C174.871750,639.738953 175.380920,638.748108 176.030090,637.969238 
	C176.030090,637.969238 176.005035,638.022827 176.411575,638.158447 
	C176.891174,637.835266 176.964233,637.376404 177.037292,636.917542 
	C177.037292,636.917542 176.991165,636.994751 177.398193,637.247253 
	C177.882080,636.973328 177.958939,636.446838 178.035797,635.920410 
	C178.035782,635.920410 177.994995,635.994873 178.400299,636.262939 
	C178.881454,635.995789 178.957306,635.460510 179.033157,634.925293 
	C179.033157,634.925293 179.005203,634.980164 179.097885,635.472778 
	C180.934509,635.143555 182.803741,634.513611 184.402924,633.469971 
	C200.118073,623.213867 215.997116,613.189575 231.404160,602.487061 
	C243.379211,594.168579 255.392105,585.698975 266.238892,576.009949 
	C282.586151,561.407654 295.446014,543.893311 304.522400,523.388794 
	C312.872131,506.266815 317.871460,488.483643 320.026154,469.919769 
	C321.674225,455.720306 322.016846,441.509003 319.395630,426.996399 
	C319.261139,425.407867 319.069977,424.186432 318.966766,422.745300 
	C318.774536,421.822754 318.494324,421.119904 318.284058,420.014679 
	C317.012054,414.618927 315.670105,409.625580 314.328125,404.632202 
	C313.981964,402.726471 313.635803,400.820709 313.323425,398.483154 
	C313.357208,398.051300 313.475037,397.604614 313.475037,397.604614 
	C313.255096,397.343384 313.035187,397.082184 312.522491,396.130249 
	C309.817535,389.540039 307.405365,383.640503 304.993195,377.740997 
	C304.969482,377.562286 304.945801,377.383575 304.683167,376.864807 
	C304.389832,376.131470 304.335449,375.738159 304.281067,375.344818 
	C304.281067,375.344818 304.016907,375.040680 303.731628,374.761353 
	C303.049530,374.134949 302.652740,373.787842 302.255951,373.440704 
	C301.538086,371.887756 300.820221,370.334808 300.121216,368.149475 
	C295.852936,360.674286 291.565796,353.831482 287.176086,346.648560 
	C270.446442,327.037476 253.819427,307.766479 237.095352,288.184814 
	C230.323914,280.219635 223.651474,272.563477 216.974747,264.911011 
	C206.246994,252.615479 195.478638,240.355042 184.802429,228.014923 
	C179.192947,221.531189 178.229996,213.841370 181.961639,207.202682 
	C186.072571,199.889267 193.091904,196.058670 201.237610,198.321045 
	C205.806671,199.590042 209.883469,203.000961 213.884689,205.862625 
	C220.723511,210.753769 227.328629,215.971695 234.031891,221.052368 
	C234.031891,221.052368 233.976440,221.024765 233.941940,221.342682 
	C244.247726,229.839584 254.587997,238.018600 265.125244,246.506714 
	C265.887543,246.871719 266.452911,246.927628 267.018280,246.983521 
	C267.018280,246.983521 267.000000,247.000000 266.735962,247.272491 
	C278.591339,257.191589 290.710754,266.838165 303.116547,276.830811 
	C304.286285,277.116302 305.169647,277.055756 306.053009,276.995239 
	C306.053009,276.995239 306.001953,276.982758 305.515015,277.191406 
	C305.694977,277.948639 306.361847,278.497223 307.028748,279.045807 
	C307.028748,279.045807 306.983154,279.020172 306.835297,279.340210 
	C307.483246,280.127197 308.279083,280.594147 309.074921,281.061096 
	C309.074921,281.061096 308.982269,280.993561 309.005066,281.288025 
	C320.708008,289.880981 332.388184,298.179474 344.068329,306.477966 
	C344.538422,306.962585 345.008545,307.447174 346.107483,308.013855 
	C353.619263,311.133545 360.502228,314.171143 367.726257,317.520935 
	C369.401123,317.889343 370.734924,317.945526 372.068726,318.001709 
	C372.068726,318.001709 372.007294,317.981476 371.712708,318.211151 
	C372.003937,318.751495 372.589691,319.062195 373.457703,319.621643 
	C380.186615,321.249634 386.633240,322.628845 393.079895,324.008087 
	C393.079895,324.008087 393.006317,323.984314 392.792114,324.305908 
	C393.565796,324.830566 394.553711,325.033600 395.668213,325.437561 
	C396.526306,325.737946 397.257782,325.837433 398.302155,326.079712 
	C399.523773,326.289520 400.432465,326.356567 401.502869,326.611633 
	C402.438599,326.851501 403.212616,326.903351 404.340576,327.121460 
	C406.490875,327.407288 408.287292,327.526855 410.325592,327.808899 
	C411.710541,327.977081 412.853546,327.982758 414.436035,328.137695 
	C416.076385,328.205627 417.277283,328.124329 418.478180,328.042999 
M596.101318,414.067322 
	C595.380249,413.869232 594.659180,413.671143 593.976746,413.519470 
	C593.976746,413.519470 593.982727,413.579559 594.924011,413.229309 
	C588.964050,401.299286 579.292908,393.047028 568.125977,386.310120 
	C567.813660,386.121704 567.000427,386.763733 566.476868,387.021973 
	C566.476868,387.021973 566.519348,387.058746 567.239380,386.474701 
	C566.144409,385.688110 565.049438,384.901520 563.453796,383.687836 
	C561.879333,383.000153 560.304932,382.312500 558.220032,381.109558 
	C540.189575,373.805023 521.875916,373.130890 502.514557,379.329163 
	C501.722809,379.875031 500.931061,380.420868 499.488953,380.873627 
	C494.312347,383.609344 489.135742,386.345062 484.009399,389.009949 
	C484.009399,389.009949 484.086731,388.970428 483.457458,388.486206 
	C472.918884,395.140167 464.506866,403.786774 458.142883,415.226868 
	C456.478729,418.593964 454.748199,421.931519 453.222656,425.360291 
	C452.995697,425.870331 453.734314,426.809998 454.022583,427.503265 
	C454.022583,427.503265 454.058716,427.471985 453.338501,426.874420 
	C452.436371,428.949646 451.233795,430.947815 450.679016,433.112091 
	C445.585754,452.981262 446.912262,472.092896 456.388092,490.692993 
	C466.698303,510.930908 482.423737,524.286072 504.644470,531.235413 
	C506.196991,531.587219 507.749542,531.938965 509.614532,532.683472 
	C510.406372,532.779724 511.198212,532.876038 512.613892,533.244263 
	C513.508789,533.252441 514.403748,533.260559 515.758667,533.714050 
	C517.186584,533.847046 518.614563,533.980042 520.936157,534.380737 
	C525.612183,534.289917 530.288147,534.199158 535.536377,534.331848 
	C536.907593,533.961182 538.278748,533.590576 540.313843,533.404907 
	C541.213379,533.256409 542.112915,533.107910 543.465088,533.130798 
	C544.196655,532.837769 544.928223,532.544739 546.421326,532.244507 
	C566.185059,527.297852 581.965820,516.655945 593.861633,499.114471 
	C593.945374,498.398102 594.029053,497.681732 594.445435,496.809387 
	C594.658203,496.681671 594.840393,496.519592 595.647156,496.060669 
	C597.765442,491.291656 599.883728,486.522644 602.134827,481.134277 
	C602.545349,480.677338 602.955933,480.220398 602.970398,479.314850 
	C603.198364,478.221619 603.426331,477.128418 604.224060,475.534973 
	C604.561279,473.153595 604.669067,470.712311 605.272400,468.400360 
	C609.727112,451.329071 606.374390,435.292480 598.942566,419.796570 
	C598.776306,419.449951 597.626709,419.574890 596.984680,419.535309 
	C596.984680,419.535309 596.998474,419.607880 598.022522,418.572906 
	C597.323792,418.195038 596.625122,417.817139 595.970337,417.506317 
	C595.970337,417.506317 595.978271,417.586151 597.110657,417.165558 
	C596.871582,416.432068 596.632507,415.698578 596.101318,414.067322 
z"/>
<path fill="#DEDEDE" opacity="1.000000" stroke="none" 
	d="
M304.240967,523.621521 
	C295.446014,543.893311 282.586151,561.407654 266.238892,576.009949 
	C255.392105,585.698975 243.379211,594.168579 231.404160,602.487061 
	C215.997116,613.189575 200.118073,623.213867 184.402924,633.469971 
	C182.803741,634.513611 180.934509,635.143555 179.067993,635.480164 
	C184.687073,630.968689 190.359680,626.839478 196.184052,622.936829 
	C210.341370,613.450684 224.349625,603.714966 238.834763,594.753540 
	C251.479950,586.930420 262.484650,577.346741 272.710022,566.708008 
	C282.982605,556.020264 291.356323,543.972778 298.424347,530.981567 
	C300.032501,528.025757 301.655670,525.078186 303.675018,522.428345 
	C304.132355,523.027100 304.186676,523.324341 304.240967,523.621521 
z"/>
<path fill="#DEDEDE" opacity="1.000000" stroke="none" 
	d="
M234.350189,220.790115 
	C227.328629,215.971695 220.723511,210.753769 213.884689,205.862625 
	C209.883469,203.000961 205.806671,199.590042 201.237610,198.321045 
	C193.091904,196.058670 186.072571,199.889267 181.961639,207.202682 
	C178.229996,213.841370 179.192947,221.531189 184.802429,228.014923 
	C195.478638,240.355042 206.246994,252.615479 216.974747,264.911011 
	C223.651474,272.563477 230.323914,280.219635 237.034378,288.587952 
	C237.034943,289.571320 236.999420,289.840820 236.963898,290.110291 
	C230.402054,283.019897 223.739304,276.019531 217.307541,268.813049 
	C211.218414,261.990417 205.372986,254.950317 199.417862,248.008011 
	C193.426376,241.023315 186.996140,234.362961 181.544373,226.979935 
	C174.044479,216.823227 177.460236,204.382965 188.211960,198.130081 
	C194.788574,194.305283 200.965500,193.853424 206.953064,198.436752 
	C216.332397,205.616440 225.443680,213.146317 234.350189,220.790115 
z"/>
<path fill="#DEDEDE" opacity="1.000000" stroke="none" 
	d="
M736.306824,495.253784 
	C720.059692,490.291412 705.556274,481.974762 691.989380,471.951172 
	C666.956970,453.456543 648.231384,429.895844 635.845093,400.558289 
	C635.968567,399.445038 636.015930,399.141205 636.063232,398.837372 
	C637.324280,401.001038 638.768738,403.079712 639.817139,405.341919 
	C647.452515,421.816711 657.413147,436.763855 670.284363,449.526428 
	C679.192078,458.358917 688.239990,467.352722 698.489441,474.448395 
	C709.882141,482.335449 722.290039,489.009888 735.836243,492.975952 
	C736.572571,493.191498 737.190857,493.810638 737.541748,494.664185 
	C736.915161,495.142303 736.610962,495.198059 736.306824,495.253784 
z"/>
<path fill="#E3E3E3" opacity="1.000000" stroke="none" 
	d="
M578.720154,239.692413 
	C578.866455,240.818741 579.226685,242.499222 578.580627,243.575836 
	C564.797424,266.544525 547.168640,285.982758 524.390991,300.246521 
	C514.876770,306.204468 504.555359,310.881195 494.541351,316.024384 
	C493.140015,316.744141 491.396759,316.798187 489.404205,317.084900 
	C496.912537,312.995331 505.126740,309.467926 512.669495,304.844971 
	C522.268799,298.961548 531.867981,292.843781 540.495361,285.659882 
	C555.894653,272.837128 568.120667,257.120819 578.720154,239.692413 
z"/>
<path fill="#E3E3E3" opacity="1.000000" stroke="none" 
	d="
M822.968201,564.589905 
	C844.332092,565.543091 865.699768,566.421814 887.057434,567.498474 
	C892.864502,567.791260 898.625122,567.660950 902.916504,563.436768 
	C905.537415,560.856934 907.031311,557.132263 909.331055,553.841919 
	C910.357727,559.183105 907.566467,564.233154 901.818054,567.049377 
	C896.019470,569.890259 890.016846,570.849304 883.445984,569.417297 
	C878.366821,568.310425 873.019653,568.264832 867.780334,568.094055 
	C854.047668,567.646545 840.307922,567.418457 826.573608,567.014526 
	C825.008972,566.968506 823.460938,566.360291 821.646606,565.728333 
	C821.914734,565.159241 822.441467,564.874573 822.968201,564.589905 
z"/>
<path fill="#DBDBDB" opacity="1.000000" stroke="none" 
	d="
M527.213623,832.565552 
	C531.863037,849.155457 536.515747,865.744507 541.159973,882.335815 
	C542.770569,888.089478 544.478760,893.819214 545.927368,899.613647 
	C547.551819,906.111267 556.210754,913.285217 565.327332,912.230408 
	C564.212524,911.762939 562.675903,911.066956 561.364502,911.364197 
	C553.347046,913.181274 549.084534,911.548340 545.572937,904.050781 
	C543.562683,899.758789 542.357239,895.057312 541.083984,890.458679 
	C536.815674,875.042725 532.648010,859.598511 528.519958,844.144287 
	C527.689331,841.034546 527.201843,837.833130 526.607666,834.118591 
	C526.844055,833.230652 527.028809,832.898071 527.213623,832.565552 
z"/>
<path fill="#D5D5D5" opacity="1.000000" stroke="none" 
	d="
M304.522400,523.388794 
	C304.186676,523.324341 304.132355,523.027100 304.007660,522.282227 
	C306.586945,515.824829 309.723755,509.972961 311.737854,503.757355 
	C313.464691,498.428253 313.408905,492.535034 315.007538,487.148346 
	C320.489288,468.677216 318.424988,449.737396 319.033691,430.046173 
	C319.132202,428.541626 319.235565,427.952576 319.338898,427.363495 
	C322.016846,441.509003 321.674225,455.720306 320.026154,469.919769 
	C317.871460,488.483643 312.872131,506.266815 304.522400,523.388794 
z"/>
<path fill="#DBDBDB" opacity="1.000000" stroke="none" 
	d="
M596.333374,639.123413 
	C596.668335,637.593140 597.149292,635.850708 598.128174,634.458252 
	C616.433960,608.417236 640.284668,589.103394 669.510742,576.294312 
	C669.525391,577.082825 669.288757,577.617859 669.052124,578.152893 
	C658.499390,584.446960 647.423889,590.025696 637.546814,597.244263 
	C628.387939,603.937866 620.179688,612.058167 612.178955,620.167969 
	C606.485107,625.939392 601.829834,632.735352 596.333374,639.123413 
z"/>
<path fill="#D5D5D5" opacity="1.000000" stroke="none" 
	d="
M680.362305,572.734253 
	C681.566467,571.855652 682.646301,570.617554 683.993286,570.151855 
	C708.900940,561.540039 734.599792,559.735291 760.690125,561.411499 
	C764.173157,561.635254 767.659729,561.804199 771.563599,562.357910 
	C771.980896,563.087830 771.979370,563.458313 771.977783,563.828857 
	C761.264893,563.566956 750.553101,563.161865 739.838806,563.075317 
	C721.866455,562.930115 704.343201,565.805298 687.264526,571.411743 
	C686.210083,571.757996 685.073181,571.853210 683.070068,572.051147 
	C681.564453,572.269531 680.963379,572.501892 680.362305,572.734253 
z"/>
<path fill="#DBDBDB" opacity="1.000000" stroke="none" 
	d="
M630.323853,278.205231 
	C636.558228,261.305054 642.710754,244.374039 649.059204,227.516830 
	C652.583069,218.159790 656.434021,208.925919 660.447571,199.579910 
	C658.700439,206.024780 656.855164,212.602859 654.539246,219.010849 
	C650.480530,230.240921 646.078674,241.346466 641.924744,252.542831 
	C638.823608,260.901337 635.886353,269.320679 632.068604,277.916870 
	C630.948608,278.148956 630.636230,278.177094 630.323853,278.205231 
z"/>
<path fill="#D5D5D5" opacity="1.000000" stroke="none" 
	d="
M237.505615,662.957092 
	C262.962372,651.586060 287.994049,638.991272 316.635498,635.865051 
	C317.001556,636.370422 316.990051,636.623901 317.009705,636.878723 
	C309.513611,638.612244 301.922821,640.020935 294.548096,642.170837 
	C287.184540,644.317444 279.955444,646.998657 272.814392,649.817932 
	C262.121429,654.039368 251.557022,658.586548 240.109100,663.009888 
	C238.688705,663.002075 238.097153,662.979553 237.505615,662.957092 
z"/>
<path fill="#E0E0E0" opacity="1.000000" stroke="none" 
	d="
M660.965454,113.654144 
	C655.668030,116.246078 652.200623,120.402153 649.255310,125.431122 
	C639.211426,142.580261 628.902710,159.574295 618.108521,176.805878 
	C617.307068,176.977295 617.092102,176.970337 616.877197,176.963379 
	C620.557495,170.414474 624.150391,163.814545 627.936768,157.327576 
	C635.210876,144.865646 642.423218,132.361221 650.036743,120.107826 
	C652.338928,116.402664 655.021301,112.084137 660.965454,113.654144 
z"/>
<path fill="#DEDEDE" opacity="1.000000" stroke="none" 
	d="
M876.064941,527.582520 
	C869.164185,526.661865 862.218994,525.466980 855.343384,523.955566 
	C839.593140,520.493225 823.869812,516.906494 808.155029,513.286194 
	C806.080322,512.808228 804.118774,511.838715 801.781616,511.153198 
	C805.054016,511.834564 808.661438,512.399170 812.243286,513.095215 
	C826.551880,515.875732 840.865662,518.632446 855.150085,521.532837 
	C861.577454,522.837952 867.945740,524.438416 874.324341,525.973206 
	C874.959045,526.125977 875.478882,526.756042 876.064941,527.582520 
z"/>
<path fill="#D8D8D8" opacity="1.000000" stroke="none" 
	d="
M237.114166,290.415955 
	C236.999420,289.840820 237.034943,289.571320 237.131439,288.898621 
	C253.819427,307.766479 270.446442,327.037476 286.819153,346.649841 
	C286.088928,346.995575 285.613037,346.999969 285.137146,347.004364 
	C274.119507,333.903900 263.132843,320.777191 252.069901,307.715057 
	C247.214890,301.982697 242.204346,296.382080 237.114166,290.415955 
z"/>
<path fill="#E0E0E0" opacity="1.000000" stroke="none" 
	d="
M576.095825,848.025391 
	C575.928711,846.159058 575.761719,844.292664 575.760681,841.555786 
	C575.966431,839.075073 576.006226,837.464783 576.046021,835.854553 
	C576.716675,839.253662 577.584595,842.628052 578.015320,846.057312 
	C578.825134,852.504211 579.512024,858.972839 580.014954,865.450684 
	C580.799500,875.557617 581.673584,885.671448 581.967957,895.798157 
	C582.196594,903.666077 575.690735,911.226990 568.448730,912.017151 
	C569.951355,910.585388 571.927490,909.285828 573.727417,907.775940 
	C578.547791,903.732483 580.458069,898.435608 579.935242,892.259155 
	C578.814941,879.024963 577.621582,865.796875 576.653198,851.765625 
	C576.597412,849.985168 576.346619,849.005249 576.095825,848.025391 
z"/>
<path fill="#E3E3E3" opacity="1.000000" stroke="none" 
	d="
M630.177734,278.478271 
	C630.636230,278.177094 630.948608,278.148956 631.730835,278.096252 
	C630.817871,283.154480 629.381775,288.223419 628.062012,293.322479 
	C623.915405,309.343445 623.726013,325.695923 624.047607,342.089111 
	C624.080139,343.747498 624.004700,345.407990 623.500488,347.491852 
	C622.769470,347.906158 622.517273,347.896088 622.265076,347.886047 
	C619.984863,324.294159 622.432312,301.233368 630.177734,278.478271 
z"/>
<path fill="#CBCBCB" opacity="1.000000" stroke="none" 
	d="
M506.741272,755.672729 
	C508.870209,764.488586 511.508514,773.529236 514.004150,782.609131 
	C517.419373,795.034790 520.726196,807.490295 523.748047,819.886353 
	C522.895325,819.240784 522.374023,818.641907 521.852722,818.043030 
	C518.208557,804.169861 514.584900,790.291321 510.896942,776.429749 
	C510.372925,774.460083 509.612213,772.542297 508.830200,770.654663 
	C506.856293,765.889893 505.939209,761.028748 506.741272,755.672729 
z"/>
<path fill="#D8D8D8" opacity="1.000000" stroke="none" 
	d="
M622.191956,348.267792 
	C622.517273,347.896088 622.769470,347.906158 623.398804,347.949707 
	C624.541626,351.550812 625.741638,355.087860 625.995300,358.691528 
	C626.919189,371.815918 631.848877,383.848175 635.726440,396.174957 
	C635.915283,396.775238 635.954224,397.422668 636.063110,398.442749 
	C636.015930,399.141205 635.968567,399.445038 635.836670,400.202515 
	C627.857239,384.198944 624.024597,366.676788 622.191956,348.267792 
z"/>
<path fill="#BFBFBF" opacity="1.000000" stroke="none" 
	d="
M772.433472,563.911743 
	C771.979370,563.458313 771.980896,563.087830 771.980530,562.439331 
	C788.697754,562.865845 805.416992,563.570312 822.552185,564.432373 
	C822.441467,564.874573 821.914734,565.159241 821.235168,565.611938 
	C805.017944,565.184937 788.953491,564.589783 772.433472,563.911743 
z"/>
<path fill="#DBDBDB" opacity="1.000000" stroke="none" 
	d="
M175.749741,637.643311 
	C175.380920,638.748108 174.871750,639.738953 174.061584,640.274170 
	C161.047150,648.873535 147.994370,657.414856 134.259796,665.995178 
	C133.331329,665.995667 133.093353,665.970276 132.855377,665.944946 
	C138.527847,661.804810 144.112747,657.537415 149.895645,653.557739 
	C156.632950,648.921204 163.526199,644.509705 170.391861,640.062439 
	C172.001633,639.019714 173.772583,638.225769 175.749741,637.643311 
z"/>
<path fill="#DBDBDB" opacity="1.000000" stroke="none" 
	d="
M302.830170,276.484741 
	C290.710754,266.838165 278.591339,257.191589 266.744781,247.264038 
	C269.886597,248.701401 272.977692,250.137482 275.584381,252.189026 
	C284.750854,259.403229 293.750824,266.828918 302.885529,274.908997 
	C302.914764,275.923981 302.872467,276.204376 302.830170,276.484741 
z"/>
<path fill="#DEDEDE" opacity="1.000000" stroke="none" 
	d="
M344.016785,306.072296 
	C332.388184,298.179474 320.708008,289.880981 308.969330,281.243225 
	C311.044403,281.846619 313.404633,282.468201 315.272827,283.786926 
	C323.912689,289.885681 332.435608,296.151367 340.944794,302.432617 
	C342.111603,303.293884 342.966125,304.578186 344.016785,306.072296 
z"/>
<path fill="#D5D5D5" opacity="1.000000" stroke="none" 
	d="
M616.553711,177.095062 
	C617.092102,176.970337 617.307068,176.977295 617.843933,177.002594 
	C610.511963,189.824478 602.858032,202.628021 595.083374,215.754028 
	C595.960815,207.009186 602.679138,200.772232 606.470825,193.086349 
	C609.205078,187.543854 612.940979,182.495499 616.553711,177.095062 
z"/>
<path fill="#D8D8D8" opacity="1.000000" stroke="none" 
	d="
M571.657227,799.095642 
	C570.327576,783.985107 568.997864,768.874512 567.834045,753.420044 
	C569.681213,764.721985 571.483276,776.352478 572.971680,788.023010 
	C573.430176,791.618469 573.032837,795.323059 573.031433,799.469177 
	C573.035461,799.960632 572.954224,800.030029 572.774658,799.940552 
	C572.282532,799.599304 571.969849,799.347473 571.657227,799.095642 
z"/>
<path fill="#E3E3E3" opacity="1.000000" stroke="none" 
	d="
M909.790527,545.929321 
	C905.873291,535.891602 897.325500,532.608215 887.431580,531.042297 
	C884.130371,530.519714 880.964233,529.144104 877.377319,528.076721 
	C878.139160,527.645935 879.391235,526.782593 880.359802,527.029846 
	C887.629517,528.885437 895.151550,530.250854 901.967407,533.212830 
	C906.597290,535.224915 910.508362,539.387512 909.790527,545.929321 
z"/>
<path fill="#DEDEDE" opacity="1.000000" stroke="none" 
	d="
M409.701111,650.297119 
	C410.409515,649.758179 411.619965,648.982178 412.354034,649.301453 
	C425.429016,654.988342 437.695892,662.020935 447.705658,671.420349 
	C446.592896,671.233337 446.201385,671.152893 445.809875,671.072388 
	C436.218048,665.250122 426.658661,659.373230 417.009674,653.647278 
	C414.826813,652.351990 412.332428,651.581726 409.701111,650.297119 
z"/>
<path fill="#D8D8D8" opacity="1.000000" stroke="none" 
	d="
M264.928284,246.197601 
	C254.587997,238.018600 244.247726,229.839584 233.926315,221.315933 
	C235.854507,221.702271 238.103470,222.012451 239.616913,223.233932 
	C248.119644,230.096405 256.445190,237.178421 264.915405,244.845428 
	C264.975800,245.736099 264.952057,245.966843 264.928284,246.197601 
z"/>
<path fill="#D5D5D5" opacity="1.000000" stroke="none" 
	d="
M163.796677,694.382141 
	C176.389175,688.992371 188.981659,683.602600 201.823578,678.601807 
	C198.772629,680.689026 195.541306,682.541504 192.158508,684.055725 
	C183.067368,688.125061 173.911469,692.049805 164.359909,695.657715 
	C163.891235,694.983032 163.843964,694.682617 163.796677,694.382141 
z"/>
<path fill="#D8D8D8" opacity="1.000000" stroke="none" 
	d="
M661.345459,197.926819 
	C661.825195,195.095398 662.443787,192.053207 663.516479,189.180573 
	C666.235229,181.900253 669.157593,174.695999 672.157532,167.368530 
	C670.843140,173.028381 669.699951,178.893372 667.793152,184.498596 
	C666.230957,189.090652 663.759460,193.373367 661.345459,197.926819 
z"/>
<path fill="#CBCBCB" opacity="1.000000" stroke="none" 
	d="
M676.350708,157.924576 
	C677.865295,152.336288 679.922302,146.668564 681.529846,140.876099 
	C682.615234,136.965210 683.067139,132.878510 684.050659,128.397614 
	C684.551331,127.912590 684.801147,127.932892 685.048340,127.985680 
	C685.065125,131.065979 685.866882,134.407761 684.944885,137.175293 
	C682.609741,144.184998 679.500793,150.936890 676.350708,157.924576 
z"/>
<path fill="#DEDEDE" opacity="1.000000" stroke="none" 
	d="
M566.741577,748.877991 
	C567.012695,747.690186 567.120789,746.241089 567.150330,744.790405 
	C567.354431,734.767151 567.542114,724.743530 567.867554,714.375000 
	C567.992065,716.545898 568.079834,719.066528 567.958984,721.576965 
	C567.524841,730.591797 567.020203,739.603271 566.741577,748.877991 
z"/>
<path fill="#D8D8D8" opacity="1.000000" stroke="none" 
	d="
M482.007233,709.344910 
	C483.016418,709.704773 484.536621,710.165344 485.117188,711.169373 
	C489.606506,718.932617 493.914093,726.800964 498.195190,735.420288 
	C498.066071,736.496826 498.019806,736.789795 497.973541,737.082703 
	C492.676697,727.954285 487.379852,718.825806 482.007233,709.344910 
z"/>
<path fill="#BFBFBF" opacity="1.000000" stroke="none" 
	d="
M460.018127,326.595642 
	C446.744568,327.171722 433.064148,327.933014 419.143127,328.332336 
	C427.027191,327.503937 435.095978,328.906891 443.329712,326.238190 
	C448.187927,324.663574 454.147217,326.486084 460.018127,326.595642 
z"/>
<path fill="#D5D5D5" opacity="1.000000" stroke="none" 
	d="
M344.009247,634.033447 
	C353.579681,635.076843 363.150146,636.120178 372.930176,637.359009 
	C368.803894,637.397339 364.449951,637.434204 360.136871,637.032715 
	C355.018005,636.556091 349.934265,635.702271 344.420532,634.733032 
	C344.005707,634.454102 344.009247,634.033447 344.009247,634.033447 
z"/>
<path fill="#D8D8D8" opacity="1.000000" stroke="none" 
	d="
M163.422028,694.497864 
	C163.843964,694.682617 163.891235,694.983032 164.005615,695.734680 
	C155.992218,699.472839 147.911728,702.759766 139.454605,705.863037 
	C139.110077,705.377014 139.112579,705.074280 139.085480,704.771362 
	C147.072784,701.385437 155.060089,697.999512 163.422028,694.497864 
z"/>
<path fill="#DBDBDB" opacity="1.000000" stroke="none" 
	d="
M594.695129,216.018890 
	C590.504883,223.290115 585.950378,230.634186 581.197144,237.957245 
	C581.021362,237.724579 581.044434,237.512939 581.067444,237.301285 
	C584.340637,229.513565 587.662781,221.756454 594.695129,216.018890 
z"/>
<path fill="#DBDBDB" opacity="1.000000" stroke="none" 
	d="
M736.566101,495.515808 
	C736.610962,495.198059 736.915161,495.142303 737.677917,495.016663 
	C746.368591,497.041412 754.600647,499.136047 762.527710,501.675415 
	C761.917542,502.198364 761.612366,502.276550 761.307190,502.354706 
	C753.146606,500.162415 744.985962,497.970123 736.566101,495.515808 
z"/>
<path fill="#CBCBCB" opacity="1.000000" stroke="none" 
	d="
M203.083359,677.576782 
	C210.421494,674.591675 217.918167,671.135254 225.748718,667.823242 
	C226.075577,668.378967 226.068527,668.790344 226.061462,669.201660 
	C220.335754,671.817200 214.671326,674.583557 208.844742,676.950806 
	C207.223770,677.609375 205.122726,677.086426 203.083359,677.576782 
z"/>
<path fill="#BFBFBF" opacity="1.000000" stroke="none" 
	d="
M138.688110,704.747986 
	C139.112579,705.074280 139.110077,705.377014 139.054916,705.905518 
	C132.299850,707.894043 126.047707,706.944031 120.764809,702.287354 
	C119.547943,701.214783 119.266747,699.080627 118.690643,697.140625 
	C123.721848,703.407043 130.003387,706.543579 138.688110,704.747986 
z"/>
<path fill="#D8D8D8" opacity="1.000000" stroke="none" 
	d="
M132.481445,665.940918 
	C133.093353,665.970276 133.331329,665.995667 133.925415,666.066406 
	C131.427704,668.091858 128.194366,669.701660 125.812408,672.142334 
	C122.550087,675.485107 119.934296,679.458923 116.997429,683.509521 
	C116.748604,682.248901 115.784996,680.135010 116.464127,679.116943 
	C120.369308,673.262878 125.250504,668.375000 132.481445,665.940918 
z"/>
<path fill="#DEDEDE" opacity="1.000000" stroke="none" 
	d="
M285.123779,347.349548 
	C285.613037,346.999969 286.088928,346.995575 286.921753,346.989929 
	C291.565796,353.831482 295.852936,360.674286 300.070618,367.788422 
	C298.980682,367.065826 297.772461,366.203064 296.971466,365.055939 
	C292.959198,359.309814 289.053528,353.489197 285.123779,347.349548 
z"/>
<path fill="#E3E3E3" opacity="1.000000" stroke="none" 
	d="
M367.385162,317.208710 
	C360.502228,314.171143 353.619263,311.133545 346.382324,308.043457 
	C347.139404,307.666748 348.511688,306.753052 349.320221,307.111420 
	C355.895782,310.025665 362.365784,313.177948 368.564148,316.660400 
	C367.968658,317.111572 367.676910,317.160126 367.385162,317.208710 
z"/>
<path fill="#DBDBDB" opacity="1.000000" stroke="none" 
	d="
M685.031128,127.580948 
	C684.801147,127.932892 684.551331,127.912590 684.111938,127.947571 
	C681.502258,120.535431 677.490479,114.801559 668.544006,113.942261 
	C676.023254,111.379204 684.060425,117.698151 685.031128,127.580948 
z"/>
<path fill="#D5D5D5" opacity="1.000000" stroke="none" 
	d="
M575.339478,681.080994 
	C577.398254,674.724487 579.840820,668.283081 582.609375,662.046082 
	C582.978149,662.556702 583.020996,662.862976 583.063843,663.169250 
	C580.617004,669.111511 578.170166,675.053833 575.339478,681.080994 
z"/>
<path fill="#CBCBCB" opacity="1.000000" stroke="none" 
	d="
M761.591675,502.598755 
	C761.612366,502.276550 761.917542,502.198364 762.687195,502.033325 
	C768.672363,503.301208 774.187683,504.678833 779.719849,505.984924 
	C780.504272,506.170135 781.370850,506.007599 782.616333,506.290588 
	C783.106384,506.864380 783.108948,507.154297 783.040894,507.444824 
	C775.986023,505.910797 768.931091,504.376801 761.591675,502.598755 
z"/>
<path fill="#E0E0E0" opacity="1.000000" stroke="none" 
	d="
M319.395630,426.996399 
	C319.235565,427.952576 319.132202,428.541626 319.010010,429.579712 
	C317.355255,421.816376 315.719421,413.604004 314.205841,405.011902 
	C315.670105,409.625580 317.012054,414.618927 318.231628,420.361786 
	C318.365723,421.729187 318.622253,422.347076 318.878784,422.964996 
	C319.069977,424.186432 319.261139,425.407867 319.395630,426.996399 
z"/>
<path fill="#E3E3E3" opacity="1.000000" stroke="none" 
	d="
M317.450836,636.960083 
	C316.990051,636.623901 317.001556,636.370422 317.033936,635.927979 
	C324.040955,635.112854 331.058289,634.488220 338.538269,634.157166 
	C339.000946,634.450745 338.990082,634.874084 338.990082,634.874084 
	C338.130615,635.265686 337.290558,635.943176 336.408630,636.002930 
	C330.241272,636.420593 324.065216,636.710632 317.450836,636.960083 
z"/>
<path fill="#D5D5D5" opacity="1.000000" stroke="none" 
	d="
M304.793304,378.011353 
	C307.405365,383.640503 309.817535,389.540039 312.193726,395.737488 
	C307.505157,391.025513 306.583313,384.426056 304.793304,378.011353 
z"/>
<path fill="#CBCBCB" opacity="1.000000" stroke="none" 
	d="
M498.037170,737.462280 
	C498.019806,736.789795 498.066071,736.496826 498.207703,735.769165 
	C500.755341,741.604187 503.207611,747.873962 505.774628,754.499268 
	C500.944214,750.259155 500.253387,743.715881 498.037170,737.462280 
z"/>
<path fill="#CBCBCB" opacity="1.000000" stroke="none" 
	d="
M576.042358,835.404663 
	C576.006226,837.464783 575.966431,839.075073 575.826538,841.163208 
	C575.038879,835.654846 574.351318,829.668457 574.012817,823.324585 
	C574.361938,822.967041 574.851685,822.989685 574.851685,822.989685 
	C575.247375,826.978027 575.643066,830.966431 576.042358,835.404663 
z"/>
<path fill="#DBDBDB" opacity="1.000000" stroke="none" 
	d="
M392.964783,323.633423 
	C386.633240,322.628845 380.186615,321.249634 373.941650,319.504883 
	C374.469543,319.078461 374.795715,319.017578 375.121918,318.956665 
	C379.687408,319.947235 384.260468,320.904999 388.813843,321.948364 
	C390.187103,322.263000 391.505951,322.815338 392.964783,323.633423 
z"/>
<path fill="#E3E3E3" opacity="1.000000" stroke="none" 
	d="
M568.658325,708.225525 
	C569.810974,702.738464 570.963562,697.251343 572.422974,691.670410 
	C571.746216,697.647705 570.762756,703.718872 569.325439,709.459473 
	C568.800476,708.827759 568.729431,708.526611 568.658325,708.225525 
z"/>
<path fill="#D5D5D5" opacity="1.000000" stroke="none" 
	d="
M391.667206,641.711975 
	C397.199127,643.665771 402.731049,645.619568 408.036438,647.809753 
	C407.153442,648.067932 406.497040,648.089661 405.840637,648.111389 
	C405.840637,648.111389 405.951385,648.101685 405.743652,647.862061 
	C404.621246,647.439880 403.706543,647.257263 402.791870,647.074646 
	C398.572144,645.635986 394.352448,644.197327 390.435577,642.331726 
	C391.048035,641.840576 391.357635,641.776245 391.667206,641.711975 
z"/>
<path fill="#CBCBCB" opacity="1.000000" stroke="none" 
	d="
M482.808899,320.068481 
	C477.575500,321.487000 472.182159,323.146606 466.391052,324.568939 
	C465.968597,324.160004 465.943848,323.988342 465.919067,323.816650 
	C471.092133,320.722565 476.648163,319.455444 482.808899,320.068481 
z"/>
<path fill="#CBCBCB" opacity="1.000000" stroke="none" 
	d="
M391.409180,641.447693 
	C391.357635,641.776245 391.048035,641.840576 390.271973,641.990845 
	C384.985077,640.973938 380.164673,639.870972 375.227417,638.401245 
	C380.457428,639.084167 385.804291,640.133789 391.409180,641.447693 
z"/>
<path fill="#D8D8D8" opacity="1.000000" stroke="none" 
	d="
M584.351440,660.988403 
	C586.053345,656.639343 588.110107,652.212463 590.440979,647.684937 
	C588.712158,652.026367 586.709229,656.468506 584.351440,660.988403 
z"/>
<path fill="#E3E3E3" opacity="1.000000" stroke="none" 
	d="
M783.424988,507.617188 
	C783.108948,507.154297 783.106384,506.864380 783.025635,506.356323 
	C788.285645,507.170624 793.553284,508.203735 798.515564,509.621735 
	C797.590210,510.069183 796.970337,510.131775 796.350403,510.194366 
	C792.169983,509.392761 787.989502,508.591156 783.424988,507.617188 
z"/>
<path fill="#DBDBDB" opacity="1.000000" stroke="none" 
	d="
M418.184814,327.731506 
	C417.277283,328.124329 416.076385,328.205627 414.239380,327.894653 
	C412.430084,327.550385 411.256897,327.598389 410.083679,327.646423 
	C408.287292,327.526855 406.490875,327.407288 404.079529,326.865723 
	C402.756775,326.437042 402.048981,326.430328 401.341187,326.423584 
	C400.432465,326.356567 399.523773,326.289520 398.314362,325.853912 
	C398.013672,325.485352 397.968414,325.035370 397.992554,325.008301 
	C398.016724,324.981262 398.064972,324.927094 398.064972,324.927094 
	C404.673798,325.758057 411.282593,326.589020 418.184814,327.731506 
z"/>
<path fill="#DEDEDE" opacity="1.000000" stroke="none" 
	d="
M521.900146,818.457092 
	C522.374023,818.641907 522.895325,819.240784 523.740112,820.347534 
	C524.997131,824.116333 525.930786,827.377319 526.434204,830.856934 
	C524.651855,827.007446 523.299683,822.939270 521.900146,818.457092 
z"/>
<path fill="#E3E3E3" opacity="1.000000" stroke="none" 
	d="
M226.450623,669.125366 
	C226.068527,668.790344 226.075577,668.378967 226.061798,667.659790 
	C228.812347,666.535950 231.583710,665.720032 234.466782,665.464844 
	C231.998917,667.033447 229.419342,668.041260 226.450623,669.125366 
z"/>
<path fill="#D8D8D8" opacity="1.000000" stroke="none" 
	d="
M572.651978,810.093750 
	C572.473694,808.656921 572.295471,807.220032 572.396301,805.065491 
	C572.768372,802.908508 572.861328,801.469299 572.954224,800.030029 
	C572.954224,800.030029 573.035461,799.960632 573.075562,799.925293 
	C573.422974,803.259399 573.730408,806.628784 574.036621,810.479492 
	C574.035461,810.960693 573.954346,811.030029 573.774109,810.940369 
	C573.279907,810.598389 572.965942,810.346069 572.651978,810.093750 
z"/>
<path fill="#D8D8D8" opacity="1.000000" stroke="none" 
	d="
M574.935425,822.538818 
	C574.851685,822.989685 574.361938,822.967041 574.116821,822.963013 
	C573.652161,821.184692 573.432617,819.410400 573.485596,816.947632 
	C573.823547,814.516113 573.888916,812.773071 573.954346,811.030029 
	C573.954346,811.030029 574.035461,810.960693 574.075439,810.925354 
	C574.416687,814.622681 574.717957,818.355286 574.935425,822.538818 
z"/>
<path fill="#E3E3E3" opacity="1.000000" stroke="none" 
	d="
M468.686768,693.270325 
	C468.949402,692.639282 469.476074,692.256897 470.002747,691.874512 
	C471.700348,694.354370 473.397980,696.834229 474.536255,699.444580 
	C472.301544,697.556396 470.626160,695.537659 468.686768,693.270325 
z"/>
<path fill="#E3E3E3" opacity="1.000000" stroke="none" 
	d="
M669.431458,578.107971 
	C669.288757,577.617859 669.525391,577.082825 669.882446,576.279907 
	C672.608093,575.022095 675.213379,574.032104 677.940552,573.524048 
	C675.311951,575.358337 672.561340,576.710693 669.431458,578.107971 
z"/>
<path fill="#E3E3E3" opacity="1.000000" stroke="none" 
	d="
M447.689453,673.274170 
	C449.974487,671.638916 452.087036,672.960388 453.544800,677.391846 
	C451.305054,676.228210 449.630676,674.877441 447.689453,673.274170 
z"/>
<path fill="#E3E3E3" opacity="1.000000" stroke="none" 
	d="
M478.234253,701.969421 
	C479.418793,703.703308 480.603333,705.437256 481.389130,707.376709 
	C479.640228,705.988770 478.290070,704.395264 477.231628,702.406860 
	C477.760284,701.997681 477.997284,701.983521 478.234253,701.969421 
z"/>
<path fill="#DEDEDE" opacity="1.000000" stroke="none" 
	d="
M568.442444,708.471313 
	C568.729431,708.526611 568.800476,708.827759 568.943726,709.587280 
	C568.884949,711.002258 568.753967,711.958740 568.287842,713.074219 
	C568.043945,711.727844 568.135254,710.222473 568.442444,708.471313 
z"/>
<path fill="#E3E3E3" opacity="1.000000" stroke="none" 
	d="
M488.619385,318.676208 
	C487.859344,318.631348 486.994324,318.818817 486.258972,319.121521 
	C487.097229,319.127350 487.805786,319.017975 488.619385,318.676208 
z"/>
<path fill="#DBDBDB" opacity="1.000000" stroke="none" 
	d="
M395.541626,325.236633 
	C394.553711,325.033600 393.565796,324.830566 392.768738,324.275085 
	C394.561615,324.008057 396.163574,324.093475 397.915283,324.552979 
	C398.064972,324.927094 398.016724,324.981262 397.585419,325.014679 
	C396.616608,325.110931 396.079132,325.173767 395.541626,325.236633 
z"/>
<path fill="#DEDEDE" opacity="1.000000" stroke="none" 
	d="
M796.574707,510.398560 
	C796.970337,510.131775 797.590210,510.069183 798.676086,509.979431 
	C799.433533,510.160950 799.725098,510.369720 800.168945,510.816956 
	C799.147156,510.904541 797.973022,510.753662 796.574707,510.398560 
z"/>
<path fill="#DEDEDE" opacity="1.000000" stroke="none" 
	d="
M303.116547,276.830811 
	C302.872467,276.204376 302.914764,275.923981 303.017578,275.222656 
	C304.027893,275.311829 304.977722,275.821960 305.990265,276.663666 
	C305.169647,277.055756 304.286285,277.116302 303.116547,276.830811 
z"/>
<path fill="#E3E3E3" opacity="1.000000" stroke="none" 
	d="
M467.232849,688.906494 
	C467.854187,690.049194 468.475525,691.191956 468.536621,692.454468 
	C467.029205,691.626221 466.082001,690.678101 465.368530,689.371765 
	C466.145782,688.977905 466.689331,688.942200 467.232849,688.906494 
z"/>
<path fill="#DEDEDE" opacity="1.000000" stroke="none" 
	d="
M467.143524,688.626831 
	C466.689331,688.942200 466.145782,688.977905 465.195038,689.046875 
	C464.456116,689.068420 464.203735,688.920959 464.149048,688.151184 
	C464.606201,687.405884 464.944946,687.147217 465.283691,686.888550 
	C465.873871,687.374756 466.464050,687.861023 467.143524,688.626831 
z"/>
<path fill="#E3E3E3" opacity="1.000000" stroke="none" 
	d="
M453.689148,678.272156 
	C455.564453,676.494995 456.225708,676.845886 457.566589,680.795532 
	C455.987152,680.222107 454.972900,679.373352 453.689148,678.272156 
z"/>
<path fill="#DBDBDB" opacity="1.000000" stroke="none" 
	d="
M367.726257,317.520935 
	C367.676910,317.160126 367.968658,317.111572 368.700256,317.005432 
	C370.060547,317.069794 370.980927,317.191742 371.985046,317.657715 
	C370.734924,317.945526 369.401123,317.889343 367.726257,317.520935 
z"/>
<path fill="#DEDEDE" opacity="1.000000" stroke="none" 
	d="
M309.064819,280.636902 
	C308.279083,280.594147 307.483246,280.127197 306.830444,279.314514 
	C307.667206,279.383423 308.360962,279.798065 309.064819,280.636902 
z"/>
<path fill="#DBDBDB" opacity="1.000000" stroke="none" 
	d="
M265.125244,246.506714 
	C264.952057,245.966843 264.975800,245.736099 265.034851,245.159180 
	C265.930450,245.352295 266.790802,245.891556 267.334717,246.707169 
	C266.452911,246.927628 265.887543,246.871719 265.125244,246.506714 
z"/>
<path fill="#E3E3E3" opacity="1.000000" stroke="none" 
	d="
M343.615967,633.934937 
	C344.009247,634.033447 344.005707,634.454102 343.998169,634.664307 
	C342.925415,634.929993 341.860168,634.985474 340.396667,634.745117 
	C339.998352,634.449280 340.002136,634.024414 340.002136,634.024414 
	C341.075653,633.961731 342.149200,633.899109 343.615967,633.934937 
z"/>
<path fill="#E3E3E3" opacity="1.000000" stroke="none" 
	d="
M465.133850,686.569580 
	C464.944946,687.147217 464.606201,687.405884 464.088623,687.932373 
	C463.588501,687.733765 463.267242,687.267517 462.940247,686.047607 
	C462.921906,685.000549 462.909332,684.707092 462.896759,684.413635 
	C463.592529,685.025940 464.288300,685.638245 465.133850,686.569580 
z"/>
<path fill="#DEDEDE" opacity="1.000000" stroke="none" 
	d="
M402.955017,647.398682 
	C403.706543,647.257263 404.621246,647.439880 405.739075,647.917480 
	C405.000854,648.049255 404.059509,647.885986 402.955017,647.398682 
z"/>
<path fill="#DEDEDE" opacity="1.000000" stroke="none" 
	d="
M527.240967,832.188660 
	C527.028809,832.898071 526.844055,833.230652 526.454956,833.763428 
	C526.156555,833.218018 526.062439,832.472412 525.944702,831.345825 
	C526.370117,831.247192 526.819214,831.529480 527.240967,832.188660 
z"/>
<path fill="#D8D8D8" opacity="1.000000" stroke="none" 
	d="
M478.101807,701.585266 
	C477.997284,701.983521 477.760284,701.997681 477.168152,702.037537 
	C476.468201,702.084167 476.206818,701.946533 475.960602,700.854492 
	C475.829376,699.683716 475.766418,699.308777 475.703461,698.933899 
	C476.458771,699.689636 477.214081,700.445374 478.101807,701.585266 
z"/>
<path fill="#E3E3E3" opacity="1.000000" stroke="none" 
	d="
M678.329346,574.066040 
	C678.865173,573.337952 679.772644,572.600586 680.873535,572.433228 
	C680.278259,573.354370 679.489624,573.705566 678.329346,574.066040 
z"/>
<path fill="#D5D5D5" opacity="1.000000" stroke="none" 
	d="
M302.480408,373.437225 
	C302.652740,373.787842 303.049530,374.134949 303.604004,374.605530 
	C303.409393,374.297272 303.057129,373.865509 302.480408,373.437225 
z"/>
<path fill="#E3E3E3" opacity="1.000000" stroke="none" 
	d="
M374.988037,318.613281 
	C374.795715,319.017578 374.469543,319.078461 373.659424,319.256104 
	C372.589691,319.062195 372.003937,318.751495 371.697296,318.182709 
	C372.935669,318.039703 373.894897,318.154785 374.988037,318.613281 
z"/>
<path fill="#BFBFBF" opacity="1.000000" stroke="none" 
	d="
M117.458221,693.670532 
	C117.254639,693.950867 117.220810,694.305664 117.266335,694.752808 
	C117.496750,694.628479 117.686218,694.427063 117.781708,694.188110 
	C117.825562,694.078369 117.684944,693.894897 117.458221,693.670532 
z"/>
<path fill="#E3E3E3" opacity="1.000000" stroke="none" 
	d="
M237.408051,663.329224 
	C238.097153,662.979553 238.688705,663.002075 239.723160,663.040039 
	C239.664871,663.388062 239.163666,663.720703 238.326889,664.056641 
	C237.764359,663.940369 237.537430,663.820862 237.408051,663.329224 
z"/>
<path fill="#BFBFBF" opacity="1.000000" stroke="none" 
	d="
M465.581665,323.885376 
	C465.943848,323.988342 465.968597,324.160004 466.001648,324.591614 
	C465.495209,324.971161 464.980438,325.090698 464.070068,325.132019 
	C464.197723,324.687225 464.721008,324.320648 465.581665,323.885376 
z"/>
<path fill="#BFBFBF" opacity="1.000000" stroke="none" 
	d="
M462.585083,325.312286 
	C462.604248,325.195129 462.139954,325.301331 462.074036,325.334717 
	C462.008087,325.368073 462.254608,325.563354 462.254608,325.563354 
	C462.254608,325.563354 462.565918,325.429443 462.585083,325.312286 
z"/>
<path fill="#DEDEDE" opacity="1.000000" stroke="none" 
	d="
M405.973511,648.413269 
	C406.497040,648.089661 407.153442,648.067932 408.313263,648.072754 
	C408.784607,648.346802 408.752502,648.594360 408.359497,648.942078 
	C407.367828,648.933228 406.737122,648.824219 405.973511,648.413269 
z"/>
<path fill="#D5D5D5" opacity="1.000000" stroke="none" 
	d="
M304.470276,375.428345 
	C304.335449,375.738159 304.389832,376.131470 304.648926,376.596558 
	C304.788940,376.282867 304.724213,375.897369 304.470276,375.428345 
z"/>
<path fill="#D8D8D8" opacity="1.000000" stroke="none" 
	d="
M583.379517,663.044678 
	C583.020996,662.862976 582.978149,662.556702 582.863037,661.792114 
	C583.068237,661.029541 583.345764,660.725281 583.842773,660.702148 
	C583.939941,661.628845 583.817627,662.274475 583.379517,663.044678 
z"/>
<path fill="#E3E3E3" opacity="1.000000" stroke="none" 
	d="
M680.474976,572.918884 
	C680.963379,572.501892 681.564453,572.269531 682.666931,572.046875 
	C682.670471,572.387878 682.172546,572.719238 681.342041,573.029175 
	C681.009460,573.007690 680.587708,573.103455 680.474976,572.918884 
z"/>
<path fill="#DEDEDE" opacity="1.000000" stroke="none" 
	d="
M307.344513,278.783508 
	C306.361847,278.497223 305.694977,277.948639 305.513489,277.165161 
	C306.552704,277.460602 307.106476,277.990906 307.344513,278.783508 
z"/>
<path fill="#D5D5D5" opacity="1.000000" stroke="none" 
	d="
M313.510681,397.665070 
	C313.475037,397.604614 313.357208,398.051300 313.397339,398.004272 
	C313.437500,397.957245 313.546356,397.725525 313.510681,397.665070 
z"/>
<path fill="#E3E3E3" opacity="1.000000" stroke="none" 
	d="
M475.199524,698.990173 
	C475.766418,699.308777 475.829376,699.683716 475.910553,700.628479 
	C475.588623,700.948608 475.248474,700.698853 474.665070,700.236023 
	C474.513123,699.697449 474.604370,699.371948 475.199524,698.990173 
z"/>
<path fill="#DEDEDE" opacity="1.000000" stroke="none" 
	d="
M177.734390,635.963501 
	C177.958939,636.446838 177.882080,636.973328 177.359558,637.270264 
	C177.086914,636.696045 177.259949,636.351318 177.734390,635.963501 
z"/>
<path fill="#DEDEDE" opacity="1.000000" stroke="none" 
	d="
M178.732956,634.966064 
	C178.957306,635.460510 178.881454,635.995789 178.363037,636.283264 
	C178.091232,635.692627 178.261993,635.349731 178.732956,634.966064 
z"/>
<path fill="#DBDBDB" opacity="1.000000" stroke="none" 
	d="
M176.673325,636.963257 
	C176.964233,637.376404 176.891174,637.835266 176.384247,638.169800 
	C176.070023,637.700012 176.189697,637.354492 176.673325,636.963257 
z"/>
<path fill="#E3E3E3" opacity="1.000000" stroke="none" 
	d="
M579.665283,238.018738 
	C580.035889,238.547821 580.044678,239.182739 579.489502,239.686035 
	C579.051575,239.077789 579.177490,238.601181 579.665283,238.018738 
z"/>
<path fill="#E3E3E3" opacity="1.000000" stroke="none" 
	d="
M580.795044,237.155518 
	C581.044434,237.512939 581.021362,237.724579 580.997192,238.260300 
	C580.748718,238.616318 580.501404,238.648270 580.093628,238.342133 
	C580.129700,237.672623 580.326172,237.341187 580.795044,237.155518 
z"/>
<path fill="#D5D5D5" opacity="1.000000" stroke="none" 
	d="
M339.750854,633.961731 
	C340.002136,634.024414 339.998352,634.449280 340.003967,634.661621 
	C339.839661,634.908081 339.669739,634.942139 339.244934,634.925171 
	C338.990082,634.874084 339.000946,634.450745 338.999329,634.239014 
	C339.164948,633.984558 339.332245,633.941833 339.750854,633.961731 
z"/>
<path fill="#D8D8D8" opacity="1.000000" stroke="none" 
	d="
M480.951355,707.827209 
	C481.520325,707.685730 482.106415,707.921875 482.358643,708.618774 
	C481.672668,708.787964 481.320557,708.496399 480.951355,707.827209 
z"/>
<path fill="#DEDEDE" opacity="1.000000" stroke="none" 
	d="
M408.018921,649.338257 
	C408.550629,648.965820 409.183990,648.957520 409.685974,649.511536 
	C409.076569,649.950073 408.598572,649.826233 408.018921,649.338257 
z"/>
<path fill="#E3E3E3" opacity="1.000000" stroke="none" 
	d="
M236.821320,665.051025 
	C236.678970,664.480652 236.912949,663.886841 237.617279,663.633118 
	C237.790985,664.324707 237.494324,664.676147 236.821320,665.051025 
z"/>
<path fill="#DEDEDE" opacity="1.000000" stroke="none" 
	d="
M462.544861,684.374756 
	C462.909332,684.707092 462.921906,685.000549 462.931763,685.734497 
	C462.620056,685.971497 462.311066,685.767944 461.971252,685.280884 
	C462.024597,684.776917 462.108765,684.556396 462.544861,684.374756 
z"/>
<path fill="#DEDEDE" opacity="1.000000" stroke="none" 
	d="
M460.961487,684.263672 
	C461.457062,684.038452 461.996155,684.114258 462.286072,684.635986 
	C461.692932,684.909546 461.348969,684.737122 460.961487,684.263672 
z"/>
<path fill="#DEDEDE" opacity="1.000000" stroke="none" 
	d="
M459.961792,683.263916 
	C460.457306,683.038757 460.996185,683.114624 461.285980,683.636230 
	C460.692993,683.909607 460.349060,683.737244 459.961792,683.263916 
z"/>
<path fill="#DEDEDE" opacity="1.000000" stroke="none" 
	d="
M458.646912,682.227661 
	C459.047760,681.956970 459.706757,681.912476 460.207520,682.475952 
	C459.667877,682.873901 459.286469,682.663879 458.646912,682.227661 
z"/>
<path fill="#E3E3E3" opacity="1.000000" stroke="none" 
	d="
M457.020264,681.335571 
	C457.548981,680.965332 458.182831,680.956848 458.685425,681.511169 
	C458.077911,681.948425 457.601624,681.822876 457.020264,681.335571 
z"/>
<path fill="#E3E3E3" opacity="1.000000" stroke="none" 
	d="
M234.858795,666.045837 
	C234.817642,665.376587 235.196442,664.679199 236.091980,664.491943 
	C236.165375,665.340637 235.722061,665.679138 234.858795,666.045837 
z"/>
<path fill="#CBCBCB" opacity="1.000000" stroke="none" 
	d="
M202.262466,679.027405 
	C202.053375,678.660828 202.139099,678.247620 202.636780,677.899170 
	C202.884918,678.302917 202.721100,678.641846 202.262466,679.027405 
z"/>
<path fill="#E3E3E3" opacity="1.000000" stroke="none" 
	d="
M445.935913,671.367065 
	C446.201385,671.152893 446.592896,671.233337 447.360565,671.792847 
	C447.736725,672.271851 447.445282,672.659302 447.207764,672.607788 
	C446.667480,672.258118 446.364716,671.959961 445.935913,671.367065 
z"/>
<path fill="#000000" opacity="1.000000" stroke="none" 
	d="
M566.519348,387.058746 
	C566.519348,387.058746 566.476868,387.021973 566.711304,387.285767 
	C577.949341,394.157928 586.357300,403.462341 593.982727,413.579559 
	C593.982727,413.579559 593.976746,413.519470 593.964905,413.835693 
	C594.232361,414.459473 594.511719,414.766998 594.861694,415.432129 
	C595.281006,416.388519 595.629639,416.987335 595.978271,417.586151 
	C595.978271,417.586151 595.970337,417.506317 595.974487,417.893005 
	C596.318604,418.722412 596.658508,419.165161 596.998474,419.607880 
	C596.998474,419.607880 596.984680,419.535309 596.979309,419.901855 
	C598.145142,422.529144 599.612915,424.687134 600.437988,427.067871 
	C604.869141,439.854187 606.360291,452.922180 604.009216,466.367096 
	C603.459412,469.511383 603.581970,472.773285 603.706909,476.316040 
	C603.801270,477.688477 603.583862,478.725983 603.366455,479.763458 
	C602.955933,480.220398 602.545349,480.677338 601.741089,481.624329 
	C599.228882,486.850616 597.110474,491.586884 594.992065,496.323181 
	C594.840393,496.519592 594.658203,496.681671 594.002686,496.890533 
	C593.349792,497.247620 593.139648,497.523590 592.612061,497.947601 
	C589.679932,501.391632 587.335022,504.952606 584.403076,507.936737 
	C572.949402,519.594299 559.250183,527.606079 543.207947,530.785461 
	C536.367676,532.141113 529.132324,532.174683 522.125977,531.823120 
	C515.738159,531.502625 509.417206,529.849121 502.889771,528.449341 
	C493.617401,525.832642 486.132477,520.630310 478.711182,515.183655 
	C470.673676,509.284729 465.517670,501.052887 459.533173,493.386475 
	C457.092133,490.259399 455.165100,487.631317 454.938507,483.702545 
	C454.849213,482.153778 454.223267,480.601562 453.660278,479.119873 
	C448.810730,466.357452 449.206818,453.236755 451.132538,440.066010 
	C451.753906,435.816223 453.063782,431.667145 454.058716,427.471985 
	C454.058716,427.471985 454.022583,427.503265 454.305542,427.260925 
	C456.782562,422.697632 458.976624,418.376678 461.497192,413.918579 
	C465.999725,405.193756 472.705750,398.845673 480.057556,393.038208 
	C481.544128,391.863953 482.750946,390.335571 484.086731,388.970428 
	C484.086731,388.970428 484.009399,389.009949 484.363800,389.016724 
	C489.858582,386.337952 494.998962,383.652344 500.139313,380.966736 
	C500.931061,380.420868 501.722809,379.875031 503.158875,379.046631 
	C504.788177,379.060394 505.824341,379.722076 506.749634,379.592407 
	C511.988983,378.858276 517.172729,377.603668 522.429504,377.142609 
	C534.251343,376.105804 545.581116,379.061829 556.990723,382.380920 
	C559.000732,383.509888 560.893250,384.301270 562.959717,385.427734 
	C564.262329,386.194794 565.390808,386.626770 566.519348,387.058746 
z"/>
<path fill="#D8D8D8" opacity="1.000000" stroke="none" 
	d="
M453.698608,427.173218 
	C453.063782,431.667145 451.753906,435.816223 451.132538,440.066010 
	C449.206818,453.236755 448.810730,466.357452 453.660278,479.119873 
	C454.223267,480.601562 454.849213,482.153778 454.938507,483.702545 
	C455.165100,487.631317 457.092133,490.259399 459.533173,493.386475 
	C465.517670,501.052887 470.673676,509.284729 478.711182,515.183655 
	C486.132477,520.630310 493.617401,525.832642 502.967529,528.736694 
	C503.481415,529.893677 503.740570,530.429443 503.999725,530.965271 
	C482.423737,524.286072 466.698303,510.930908 456.388092,490.692993 
	C446.912262,472.092896 445.585754,452.981262 450.679016,433.112091 
	C451.233795,430.947815 452.436371,428.949646 453.698608,427.173218 
z"/>
<path fill="#E3E3E3" opacity="1.000000" stroke="none" 
	d="
M504.322083,531.100342 
	C503.740570,530.429443 503.481415,529.893677 503.144501,529.070496 
	C509.417206,529.849121 515.738159,531.502625 522.125977,531.823120 
	C529.132324,532.174683 536.367676,532.141113 543.207947,530.785461 
	C559.250183,527.606079 572.949402,519.594299 584.403076,507.936737 
	C587.335022,504.952606 589.679932,501.391632 592.674622,498.380066 
	C593.105957,498.951263 593.157227,499.238007 593.208557,499.524780 
	C581.965820,516.655945 566.185059,527.297852 545.679565,532.192261 
	C544.296082,532.413086 543.654236,532.686279 543.012451,532.959412 
	C542.112915,533.107910 541.213379,533.256409 539.559082,533.246826 
	C537.524292,533.428650 536.244263,533.768555 534.964172,534.108398 
	C530.288147,534.199158 525.612183,534.289917 520.188538,533.960754 
	C518.060181,533.450073 516.679382,533.359375 515.298645,533.268677 
	C514.403748,533.260559 513.508789,533.252441 512.031799,532.859070 
	C510.733826,532.412842 510.017944,532.351807 509.302063,532.290771 
	C507.749542,531.938965 506.196991,531.587219 504.322083,531.100342 
z"/>
<path fill="#CBCBCB" opacity="1.000000" stroke="none" 
	d="
M556.873169,382.043335 
	C545.581116,379.061829 534.251343,376.105804 522.429504,377.142609 
	C517.172729,377.603668 511.988983,378.858276 506.749634,379.592407 
	C505.824341,379.722076 504.788177,379.060394 503.547974,378.763550 
	C521.875916,373.130890 540.189575,373.805023 558.012939,381.480927 
	C557.494934,381.915985 557.184021,381.979645 556.873169,382.043335 
z"/>
<path fill="#E0E0E0" opacity="1.000000" stroke="none" 
	d="
M603.395142,475.981079 
	C603.581970,472.773285 603.459412,469.511383 604.009216,466.367096 
	C606.360291,452.922180 604.869141,439.854187 600.437988,427.067871 
	C599.612915,424.687134 598.145142,422.529144 596.954895,419.874115 
	C597.626709,419.574890 598.776306,419.449951 598.942566,419.796570 
	C606.374390,435.292480 609.727112,451.329071 605.272400,468.400360 
	C604.669067,470.712311 604.561279,473.153595 603.878784,475.750549 
	C603.533508,475.966125 603.395142,475.981079 603.395142,475.981079 
z"/>
<path fill="#D5D5D5" opacity="1.000000" stroke="none" 
	d="
M594.453369,413.404419 
	C586.357300,403.462341 577.949341,394.157928 566.683228,387.284058 
	C567.000427,386.763733 567.813660,386.121704 568.125977,386.310120 
	C579.292908,393.047028 588.964050,401.299286 594.453369,413.404419 
z"/>
<path fill="#DBDBDB" opacity="1.000000" stroke="none" 
	d="
M483.772095,388.728333 
	C482.750946,390.335571 481.544128,391.863953 480.057556,393.038208 
	C472.705750,398.845673 465.999725,405.193756 461.187073,414.015015 
	C459.939056,414.462311 459.327698,414.676056 458.716339,414.889771 
	C464.506866,403.786774 472.918884,395.140167 483.772095,388.728333 
z"/>
<path fill="#D8D8D8" opacity="1.000000" stroke="none" 
	d="
M499.814148,380.920166 
	C494.998962,383.652344 489.858582,386.337952 484.338684,389.052155 
	C489.135742,386.345062 494.312347,383.609344 499.814148,380.920166 
z"/>
<path fill="#D8D8D8" opacity="1.000000" stroke="none" 
	d="
M595.319580,496.191925 
	C597.110474,491.586884 599.228882,486.850616 601.674683,481.933960 
	C599.883728,486.522644 597.765442,491.291656 595.319580,496.191925 
z"/>
<path fill="#D8D8D8" opacity="1.000000" stroke="none" 
	d="
M458.429626,415.058319 
	C459.327698,414.676056 459.939056,414.462311 460.860535,414.152161 
	C458.976624,418.376678 456.782562,422.697632 454.307404,427.284760 
	C453.734314,426.809998 452.995697,425.870331 453.222656,425.360291 
	C454.748199,421.931519 456.478729,418.593964 458.429626,415.058319 
z"/>
<path fill="#D8D8D8" opacity="1.000000" stroke="none" 
	d="
M556.990723,382.380920 
	C557.184021,381.979645 557.494934,381.915985 558.268188,381.738556 
	C560.304932,382.312500 561.879333,383.000153 563.552856,384.111877 
	C563.363159,384.721466 563.074402,384.907074 562.785706,385.092651 
	C560.893250,384.301270 559.000732,383.509888 556.990723,382.380920 
z"/>
<path fill="#CBCBCB" opacity="1.000000" stroke="none" 
	d="
M573.774109,810.940369 
	C573.888916,812.773071 573.823547,814.516113 573.564453,816.567505 
	C573.064941,814.871765 572.759155,812.867615 572.552673,810.478638 
	C572.965942,810.346069 573.279907,810.598389 573.774109,810.940369 
z"/>
<path fill="#CBCBCB" opacity="1.000000" stroke="none" 
	d="
M572.774719,799.940552 
	C572.861328,801.469299 572.768372,802.908508 572.463135,804.632751 
	C571.990540,803.221069 571.730164,801.524414 571.563477,799.461670 
	C571.969849,799.347473 572.282532,799.599304 572.774719,799.940552 
z"/>
<path fill="#D8D8D8" opacity="1.000000" stroke="none" 
	d="
M535.250244,534.220093 
	C536.244263,533.768555 537.524292,533.428650 539.227173,533.154358 
	C538.278748,533.590576 536.907593,533.961182 535.250244,534.220093 
z"/>
<path fill="#BFBFBF" opacity="1.000000" stroke="none" 
	d="
M410.325592,327.808899 
	C411.256897,327.598389 412.430084,327.550385 413.799927,327.745392 
	C412.853546,327.982758 411.710541,327.977081 410.325592,327.808899 
z"/>
<path fill="#D8D8D8" opacity="1.000000" stroke="none" 
	d="
M515.528687,533.491333 
	C516.679382,533.359375 518.060181,533.450073 519.741699,533.826904 
	C518.614563,533.980042 517.186584,533.847046 515.528687,533.491333 
z"/>
<path fill="#CBCBCB" opacity="1.000000" stroke="none" 
	d="
M575.994629,848.282104 
	C576.346619,849.005249 576.597412,849.985168 576.723877,851.349487 
	C576.364136,850.668884 576.128723,849.603821 575.994629,848.282104 
z"/>
<path fill="#D8D8D8" opacity="1.000000" stroke="none" 
	d="
M603.706909,476.316040 
	C603.395142,475.981079 603.533508,475.966125 603.593872,476.000671 
	C603.426331,477.128418 603.198364,478.221619 603.168457,479.539154 
	C603.583862,478.725983 603.801270,477.688477 603.706909,476.316040 
z"/>
<path fill="#D5D5D5" opacity="1.000000" stroke="none" 
	d="
M562.959717,385.427734 
	C563.074402,384.907074 563.363159,384.721466 563.803162,384.325409 
	C565.049438,384.901520 566.144409,385.688110 566.879395,386.766724 
	C565.390808,386.626770 564.262329,386.194794 562.959717,385.427734 
z"/>
<path fill="#BFBFBF" opacity="1.000000" stroke="none" 
	d="
M395.668213,325.437561 
	C396.079132,325.173767 396.616608,325.110931 397.561279,325.041748 
	C397.968414,325.035370 398.013672,325.485352 398.001465,325.711121 
	C397.257782,325.837433 396.526306,325.737946 395.668213,325.437561 
z"/>
<path fill="#BFBFBF" opacity="1.000000" stroke="none" 
	d="
M401.502869,326.611633 
	C402.048981,326.430328 402.756775,326.437042 403.725616,326.699463 
	C403.212616,326.903351 402.438599,326.851501 401.502869,326.611633 
z"/>
<path fill="#D8D8D8" opacity="1.000000" stroke="none" 
	d="
M509.458313,532.487122 
	C510.017944,532.351807 510.733826,532.412842 511.719879,532.723145 
	C511.198212,532.876038 510.406372,532.779724 509.458313,532.487122 
z"/>
<path fill="#D8D8D8" opacity="1.000000" stroke="none" 
	d="
M543.238770,533.045105 
	C543.654236,532.686279 544.296082,532.413086 545.298828,532.195801 
	C544.928223,532.544739 544.196655,532.837769 543.238770,533.045105 
z"/>
<path fill="#D5D5D5" opacity="1.000000" stroke="none" 
	d="
M318.966736,422.745300 
	C318.622253,422.347076 318.365723,421.729187 318.161682,420.764160 
	C318.494324,421.119904 318.774536,421.822754 318.966736,422.745300 
z"/>
<path fill="#D8D8D8" opacity="1.000000" stroke="none" 
	d="
M593.535095,499.319641 
	C593.157227,499.238007 593.105957,498.951263 592.992126,498.232025 
	C593.139648,497.523590 593.349792,497.247620 593.836365,496.968506 
	C594.029053,497.681732 593.945374,498.398102 593.535095,499.319641 
z"/>
<path fill="#D5D5D5" opacity="1.000000" stroke="none" 
	d="
M594.791016,415.074554 
	C594.511719,414.766998 594.232361,414.459473 593.945557,413.812500 
	C594.659180,413.671143 595.380249,413.869232 595.846436,414.538483 
	C595.324646,415.031311 595.057800,415.052948 594.791016,415.074554 
z"/>
<path fill="#E0E0E0" opacity="1.000000" stroke="none" 
	d="
M594.861694,415.432129 
	C595.057800,415.052948 595.324646,415.031311 595.992432,414.987366 
	C596.632507,415.698578 596.871582,416.432068 596.544434,417.375854 
	C595.629639,416.987335 595.281006,416.388519 594.861694,415.432129 
z"/>
<path fill="#E0E0E0" opacity="1.000000" stroke="none" 
	d="
M597.510498,419.090393 
	C596.658508,419.165161 596.318604,418.722412 595.952515,417.859497 
	C596.625122,417.817139 597.323792,418.195038 597.510498,419.090393 
z"/>
</svg>