<?xml version="1.0" encoding="utf-8"?>
<svg xmlns="http://www.w3.org/2000/svg" viewBox="-335.0719 11.1783 259.528 234.078" width="259.528px" height="234.078px"><path d="M -76.344 131.291 C -74.558 128.246 -75.22 122.153 -84.003 121.988 L -106.73 122.168 C -114.04 122.168 -121.26 120.667 -127.95 117.76 C -146.54 109.671 -157.69 90.633 -155.49 70.7 C -154.68 63.382 -152.29 56.318 -148.47 49.989 C -148.47 49.989 -144.45 44.528 -132.19 30.411 C -128.92 26.645 -133.77 21.197 -138.79 22.057 C -142.61 22.709 -146.24 25.077 -148.17 28.279 L -163.29 48.951 C -166.93 54.991 -168.66 55.78 -174.41 59.93 C -190.81 71.773 -213.1 71.773 -229.5 59.93 C -235.43 55.641 -240.38 50.149 -243.99 43.821 L -257.76 19.693 C -260 16.397 -265.17 8.311 -270.62 12.225 C -275.04 13.45 -271.23 23.747 -268.33 27.124 L -254.98 50.521 C -251.42 56.74 -249.2 63.607 -248.41 70.701 C -246.21 90.633 -257.36 109.672 -275.96 117.762 C -282.64 120.668 -289.86 122.169 -297.18 122.169 C -297.16 122.142 -332.92 119.114 -334.93 127.579 C -337.73 139.424 -298.16 135.883 -298.16 135.883 C -290.19 136.539 -282.63 136.396 -275.96 139.302 C -257.36 147.39 -246.21 166.428 -248.41 186.359 C -249.2 193.472 -251.42 200.358 -254.97 206.602 L -267.77 229.096 C -276.67 243.457 -271.15 244.871 -267.66 245.233 C -262.87 245.729 -258.11 238.141 -258.11 238.141 L -243.94 213.209 C -240.35 206.893 -235.42 201.408 -229.5 197.131 C -213.1 185.287 -190.81 185.287 -174.4 197.131 C -167.56 202.074 -162 208.542 -158.16 216.009 C -158.16 216.009 -149.26 238.798 -141.08 234.909 C -132.91 231.018 -150.63 202.492 -150.63 202.492 C -153.22 197.448 -154.87 191.982 -155.49 186.361 C -157.69 166.429 -146.54 147.391 -127.95 139.304 C -121.27 136.399 -114.05 134.899 -106.75 134.899 C -106.75 134.899 -98.701 134.009 -90.187 134.063 C -86.685 134.084 -77.947 134.025 -76.344 131.291 Z M -223.46 150.928 C -235.34 150.928 -244.98 138.297 -244.98 128.533 C -244.98 118.769 -235.34 107.318 -223.46 107.318 C -211.57 107.318 -201.96 118.769 -201.96 128.533 C -201.96 138.297 -211.57 150.928 -223.46 150.928 Z" style="stroke-linecap: round;" id="object-0" transform="matrix(1, 0, 0, 1, 0, 2.842170943040401e-14)"/></svg>